<?xml version="1.0" encoding="utf-8"?>
<!-- Generator: Adobe Illustrator 21.0.0, SVG Export Plug-In . SVG Version: 6.00 Build 0)  -->
<svg version="1.1" id="图层_1" xmlns="http://www.w3.org/2000/svg" xmlns:xlink="http://www.w3.org/1999/xlink" x="0px" y="0px"
	 viewBox="0 0 182 60" style="enable-background:new 0 0 182 60;" xml:space="preserve">
<style type="text/css">
	.st0{fill:#3CA5C3;}
	.st1{fill:#FFFFFF;}
</style>
<g>
	<g>
		<path class="st0" d="M145.5,0.7c-14.9,0-19.3,8.7-20.2,11.1l5.9,1.7c0.8-1.7,4.2-6.7,14.3-6.7c9.9,0,12.9,4.8,13.7,6.5l6-1.3
			C164.4,9.5,160.5,0.7,145.5,0.7z"/>
	</g>
	<g>
		<path class="st1" d="M29.7,16.5c-2.8-3-5.4-3.8-8-3.8c-7.9,0-13.1,6-13.1,13.6c0,8.1,5.2,14.2,13.1,14.2c3.1,0,6-1.4,8.6-4.6
			l5.6,4c-3.4,4.7-8.6,6.8-14.2,6.8c-11.7,0-20.2-8-20.2-19.9c0-12.2,8.4-20.2,20.2-20.2c5.2,0,9.6,1.7,13.4,6L29.7,16.5z"/>
		<path class="st1" d="M43.1,7.2c2.4,0,4.2,1.7,4.2,3.9S45.4,15,43.1,15c-2.4,0-4.1-1.8-4.1-3.9S40.7,7.2,43.1,7.2z M39.9,19.9h6.5
			v25.9h-6.5V19.9z"/>
		<path class="st1" d="M50.8,25.4v-5.5h5.3v-7.5h6.5v7.5h7.1v5.5h-7.1v11.3c0,2.6,0.8,4.2,3.6,4.2c1.1,0,2.7-0.2,3.5-0.8v5.4
			c-1.3,0.6-3.6,0.9-5.1,0.9c-6.8,0-8.5-3.1-8.5-9.2V25.4H50.8z"/>
		<path class="st1" d="M71.3,19.9h7.1l7.2,17.9h0.1l6.5-17.9h6.7L86.7,51.3c-1.9,4.8-4.2,7.4-9.9,7.4c-1.7,0-3.3-0.2-5-0.6l0.8-5.8
			c1,0.4,2.2,0.6,3.3,0.6c3.2,0,4-1.1,5.1-3.8l1.2-3.1L71.3,19.9z"/>
		<path class="st1" d="M128.6,41.1c-2.5,3.8-6.4,5.3-10.8,5.3c-7.6,0-12.6-5.4-12.6-13.2c0-7.4,5.2-13,12.4-13
			c7.7,0,11.7,5.9,11.7,11.6v2.3h-20.9c0,2.7,1.9,9.4,9.4,9.4c3.3,0,6.7-1.7,8.4-4.4L128.6,41.1z M126.1,31.2c0-4.4-3.8-8.1-8.6-8.1
			c-7.1,0-9.1,6.8-9.1,8.1H126.1z"/>
		<path class="st1" d="M142.2,53.5c-1.2,3.2-3.3,5.2-6.8,5.2c-1.1,0-2.2-0.2-3.2-0.5l0.3-3c0.9,0.3,1.9,0.6,2.9,0.6
			c2.4,0,3.4-2.2,4.1-4.2l2.3-5.8l-10.1-25h3.6l8.2,21l8-21h3.4L142.2,53.5z"/>
		<path class="st1" d="M180.8,41.1c-2.5,3.8-6.4,5.3-10.8,5.3c-7.6,0-12.6-5.4-12.6-13.2c0-7.4,5.2-13,12.4-13
			c7.7,0,11.7,5.9,11.7,11.6v2.3h-20.9c0,2.7,1.9,9.4,9.4,9.4c3.3,0,6.7-1.7,8.4-4.4L180.8,41.1z M178.3,31.2c0-4.4-3.8-8.1-8.6-8.1
			c-7.1,0-9.1,6.8-9.1,8.1H178.3z"/>
	</g>
</g>
</svg>
