<?xml version="1.0" encoding="utf-8"?>
<!-- Generator: Adobe Illustrator 21.0.0, SVG Export Plug-In . SVG Version: 6.00 Build 0)  -->
<svg version="1.1" id="图层_1" xmlns="http://www.w3.org/2000/svg" xmlns:xlink="http://www.w3.org/1999/xlink" x="0px" y="0px"
	 viewBox="0 0 193 60" style="enable-background:new 0 0 193 60;" xml:space="preserve">
<style type="text/css">
	.st0{fill:#3CA5C3;}
	.st1{fill:#FFFFFF;}
</style>
<g>
	<g>
		<path class="st0" d="M155,1c-14.7,0-19,8.6-19.9,10.9l5.8,1.7C141.7,11.9,145,7,155,7c9.8,0,12.7,4.7,13.5,6.4l5.9-1.3
			C173.7,9.8,169.8,1,155,1z"/>
	</g>
	<g>
		<path class="st1" d="M0.9,8.6h14.8c9.9,0,19.2,6.1,19.2,18.8c0,12.9-10.9,18.8-20,18.8h-14V8.6z M12.6,40.2
			c8.4,0,15.3-3.6,15.3-12.8c0-9.1-6-12.8-14.2-12.8H7.6v25.5H12.6z"/>
		<path class="st1" d="M55.6,42.8h-0.2c-1.8,2.9-4.8,4.2-8.2,4.2c-4.7,0-9.3-2.6-9.3-7.7c0-8.3,9.7-8.9,16.1-8.9h1.6v-0.7
			c0-3.1-2.4-4.8-5.9-4.8c-2.7,0-5.1,1.1-6.8,2.7l-3.4-3.4c2.8-2.9,6.8-4.1,10.9-4.1c10.9,0,10.9,7.9,10.9,11.5v14.7h-5.7V42.8z
			 M55.2,34.8h-1.3c-3.5,0-9.6,0.3-9.6,3.9c0,2.3,2.4,3.4,4.5,3.4c4.4,0,6.4-2.3,6.4-5.9V34.8z"/>
		<path class="st1" d="M64.2,26.2v-5.4h5.3v-7.4h6.4v7.4h7v5.4h-7v11.2c0,2.6,0.7,4.2,3.6,4.2c1.1,0,2.7-0.2,3.5-0.8v5.4
			c-1.3,0.6-3.6,0.9-5.1,0.9c-6.8,0-8.4-3-8.4-9V26.2H64.2z"/>
		<path class="st1" d="M102.7,42.8h-0.2c-1.8,2.9-4.8,4.2-8.2,4.2c-4.7,0-9.3-2.6-9.3-7.7c0-8.3,9.7-8.9,16.1-8.9h1.6v-0.7
			c0-3.1-2.4-4.8-5.9-4.8c-2.7,0-5.1,1.1-6.8,2.7l-3.4-3.4c2.8-2.9,6.8-4.1,10.9-4.1c10.9,0,10.9,7.9,10.9,11.5v14.7h-5.7V42.8z
			 M102.4,34.8H101c-3.5,0-9.6,0.3-9.6,3.9c0,2.3,2.4,3.4,4.5,3.4c4.4,0,6.4-2.3,6.4-5.9V34.8z"/>
		<path class="st1" d="M139.8,41.6c-2.5,3.7-6.3,5.3-10.6,5.3c-7.5,0-12.4-5.4-12.4-13c0-7.3,5.1-12.9,12.3-12.9
			c7.6,0,11.5,5.8,11.5,11.5v2.2h-20.6c0,2.7,1.9,9.3,9.3,9.3c3.2,0,6.6-1.7,8.2-4.4L139.8,41.6z M137.4,31.9c0-4.4-3.8-8-8.5-8
			c-7,0-8.9,6.7-8.9,8H137.4z"/>
		<path class="st1" d="M153.3,53.9C152,57,150,59,146.5,59c-1.1,0-2.1-0.2-3.1-0.5l0.3-3c0.9,0.3,1.9,0.6,2.9,0.6
			c2.3,0,3.4-2.2,4.1-4.1l2.2-5.7l-10-24.7h3.6l8.1,20.7l7.9-20.7h3.4L153.3,53.9z"/>
		<path class="st1" d="M191.4,41.6c-2.5,3.7-6.3,5.3-10.6,5.3c-7.5,0-12.4-5.4-12.4-13c0-7.3,5.1-12.9,12.3-12.9
			c7.6,0,11.5,5.8,11.5,11.5v2.2h-20.6c0,2.7,1.9,9.3,9.3,9.3c3.2,0,6.6-1.7,8.2-4.4L191.4,41.6z M188.9,31.9c0-4.4-3.8-8-8.5-8
			c-7,0-8.9,6.7-8.9,8H188.9z"/>
	</g>
</g>
</svg>
