<?xml version="1.0" encoding="utf-8"?>
<!-- Generator: Adobe Illustrator 21.0.0, SVG Export Plug-In . SVG Version: 6.00 Build 0)  -->
<svg version="1.1" id="图层_1" xmlns="http://www.w3.org/2000/svg" xmlns:xlink="http://www.w3.org/1999/xlink" x="0px" y="0px"
	 viewBox="0 0 74 74" style="enable-background:new 0 0 74 74;" xml:space="preserve">
<style type="text/css">
	.st0{fill:#0F3264;}
</style>
<g>
	<g>
		<path class="st0" d="M64.2,51.2c-0.2,0-0.5,0-0.7,0L50.9,36.3l9-11.2c1.3,0.7,2.8,1.1,4.4,1.1c5.2,0,9.5-4.2,9.5-9.5
			c0-5.2-4.2-9.5-9.5-9.5s-9.5,4.2-9.5,9.5c0,2.2,0.8,4.3,2.1,5.9l-8.5,10.6L38.7,22c0,0-0.1-0.1-0.1-0.1c0,0,0,0,0,0
			c0,0,0,0-0.1-0.1c0,0,0,0-0.1,0c0,0,0,0,0,0c-0.2-0.1-0.3-0.2-0.5-0.3c-0.2-0.1-0.4-0.1-0.6-0.2c0,0,0,0,0,0c0,0,0,0-0.1,0
			c0,0,0,0,0,0c0,0,0,0-0.1,0c0,0,0,0,0,0c0,0,0,0,0,0c0,0,0,0-0.1,0c0,0,0,0,0,0c-0.2,0-0.5,0.1-0.7,0.2c-0.2,0.1-0.3,0.2-0.5,0.3
			c0,0,0,0,0,0c0,0,0,0,0,0c0,0,0,0-0.1,0.1c0,0,0,0,0,0c0,0-0.1,0.1-0.1,0.1l-9,11.4l-9.1-10.7c1.3-1.6,2.1-3.7,2.1-6
			c0-5.2-4.2-9.5-9.5-9.5c-5.2,0-9.5,4.2-9.5,9.5c0,5.2,4.2,9.5,9.5,9.5c1.5,0,3-0.4,4.3-1l9.7,11.3L12.2,51.5
			c-0.7-0.2-1.4-0.2-2.1-0.2c-5.2,0-9.5,4.2-9.5,9.5c0,5.2,4.2,9.5,9.5,9.5c5.2,0,9.5-4.2,9.5-9.5c0-3.1-1.5-5.8-3.7-7.5l10.8-13.6
			l4.9,5.8c-1.6,1.5-2.7,3.7-2.7,6.1c0,4.5,3.7,8.2,8.2,8.2c4.5,0,8.2-3.7,8.2-8.2c0-2.2-0.8-4.1-2.2-5.6l5.1-6.4l11.1,13.1
			c-2.8,1.6-4.7,4.7-4.7,8.2c0,5.2,4.2,9.5,9.5,9.5c5.2,0,9.5-4.2,9.5-9.5C73.7,55.5,69.4,51.2,64.2,51.2L64.2,51.2z M64.2,11.2
			c3,0,5.5,2.5,5.5,5.5c0,3-2.5,5.5-5.5,5.5c-3,0-5.5-2.5-5.5-5.5C58.7,13.7,61.2,11.2,64.2,11.2L64.2,11.2z M4.6,16.8
			c0-3,2.5-5.5,5.5-5.5c3,0,5.5,2.5,5.5,5.5c0,3-2.5,5.5-5.5,5.5C7.1,22.3,4.6,19.8,4.6,16.8L4.6,16.8z M10.1,66.2
			c-3,0-5.5-2.5-5.5-5.5c0-3,2.5-5.5,5.5-5.5c3,0,5.5,2.5,5.5,5.5C15.7,63.8,13.2,66.2,10.1,66.2L10.1,66.2z M37.2,55.8
			c-2.4,0-4.3-1.9-4.3-4.3c0-2.4,1.9-4.3,4.3-4.3c2.4,0,4.3,1.9,4.3,4.3C41.5,53.8,39.6,55.8,37.2,55.8L37.2,55.8z M39.9,43.7
			c-0.9-0.3-1.8-0.5-2.7-0.5c-0.7,0-1.4,0.1-2,0.3l-6-7l8-10.1l8.5,10.1L39.9,43.7z M64.2,66.2c-3,0-5.5-2.5-5.5-5.5
			c0-3,2.5-5.5,5.5-5.5c3,0,5.5,2.5,5.5,5.5C69.7,63.8,67.3,66.2,64.2,66.2L64.2,66.2z M64.2,66.2"/>
	</g>
</g>
</svg>
