<?xml version="1.0" encoding="utf-8"?>
<!-- Generator: Adobe Illustrator 21.0.0, SVG Export Plug-In . SVG Version: 6.00 Build 0)  -->
<svg version="1.1" id="图层_1" xmlns="http://www.w3.org/2000/svg" xmlns:xlink="http://www.w3.org/1999/xlink" x="0px" y="0px"
	 viewBox="0 0 74 74" style="enable-background:new 0 0 74 74;" xml:space="preserve">
<style type="text/css">
	.st0{fill:#0F3264;}
	.st1{fill:#0A55A5;}
	.st2{fill:#3CA5C3;}
</style>
<g>
	<path class="st0" d="M38,66L38,66L13.9,47.4L38,31l24.1,16.4l0,0l3.7,2.5c1.2,0.8,2.7,0.7,3.8-0.1l0,0c1.7-1.3,1.7-4-0.2-5.2
		L38,23.2L2.9,47L36,72.6c1.2,0.9,2.8,0.9,3.9,0l0,0c1.7-1.3,1.7-3.8,0-5.1L38,66z"/>
	<path class="st0" d="M41.3,54.6l4.2,3.3c1.1,0.9,2.6,0.9,3.8,0.1l0,0c1.7-1.2,1.8-3.7,0.1-5l-4.1-3.3c-1.1-0.9-2.7-0.9-3.9,0l0,0
		C39.7,50.9,39.7,53.4,41.3,54.6z"/>
	<path class="st1" d="M34.7,41.5L13.9,25.5L38,9.1l6.4,4.3c8.7,5.9,9.1,18.7,0.8,25.1l-3.9,3c-1.7,1.3-1.7,3.8,0,5.1l0,0
		c1.2,0.9,2.8,0.9,3.9,0l4.4-3.4c11.5-8.9,11-26.5-1.1-34.7L38,1.3L2.9,25.1l27.9,21.5c1.2,0.9,2.8,0.9,3.9,0l0,0
		C36.4,45.4,36.4,42.8,34.7,41.5z"/>
	<path class="st2" d="M36.1,45.6L36.1,45.6c-1.7,1.3-1.6,3.8,0,5l0.1,0.1c1.1,0.9,2.7,0.9,3.8,0l0,0c1.6-1.3,1.6-3.7,0-5L40,45.6
		C38.8,44.7,37.2,44.7,36.1,45.6z"/>
</g>
</svg>
