<?xml version="1.0" encoding="utf-8"?>
<!-- Generator: Adobe Illustrator 21.0.0, SVG Export Plug-In . SVG Version: 6.00 Build 0)  -->
<svg version="1.1" id="图层_1" xmlns="http://www.w3.org/2000/svg" xmlns:xlink="http://www.w3.org/1999/xlink" x="0px" y="0px"
	 viewBox="0 0 74 74" style="enable-background:new 0 0 74 74;" xml:space="preserve">
<style type="text/css">
	.st0{fill:#3CA5C3;}
</style>
<path class="st0" d="M70.4,56.1c0,0-2.1-1.8-4.1-2.2c-0.8-0.2-1.6-0.3-2.4-0.3c-1.1,0-2.1,0.2-3.1,0.5c0,0-0.9,0.3-2,1L45.6,42.7
	c1.2-1.6,1.8-3.5,1.8-5.6c0-2.1-0.7-4-1.8-5.6l13.2-12.4c1.1,0.7,2,1,2,1c1,0.4,2.1,0.5,3.1,0.5c0.8,0,1.6-0.1,2.4-0.3
	c2-0.4,4.1-2.2,4.1-2.2c1.9-1.7,3.1-4.2,3.1-7c0-5.2-4.3-9.5-9.5-9.5c-5.2,0-9.5,4.3-9.5,9.5c0,1.7,0.4,3.2,1.2,4.6L41.9,28.4
	c-0.5-0.2-0.9-0.4-0.9-0.4c-1-0.4-2.1-0.5-3.1-0.5c-0.8,0-1.6,0.1-2.4,0.3c-0.6,0.1-1.2,0.4-1.7,0.7l-14.9-14
	c0.4-1.1,0.6-2.2,0.6-3.5c0-5.2-4.3-9.5-9.5-9.5c-5.2,0-9.5,4.3-9.5,9.5c0,2.8,1.2,5.3,3.1,7c0,0,2.1,1.8,4.1,2.2
	c0.8,0.2,1.6,0.3,2.4,0.3c1.1,0,2.1-0.2,3.1-0.5c0,0,1.5-0.4,3-1.7l14,13.2c-1.1,1.6-1.8,3.5-1.8,5.5c0,2.1,0.7,4,1.8,5.6l-14,13.2
	c-1.5-1.2-3-1.7-3-1.7c-1-0.4-2.1-0.5-3.1-0.5c-0.8,0-1.6,0.1-2.4,0.3c-2,0.4-4.1,2.2-4.1,2.2c-1.9,1.7-3.1,4.2-3.1,7
	c0,5.2,4.3,9.5,9.5,9.5c5.2,0,9.5-4.3,9.5-9.5c0-1.2-0.2-2.4-0.7-3.5l14.9-14c1.2,0.6,2.6,0.9,4.1,0.9c1.4,0,2.8-0.3,4-0.9
	l13.7,12.9c-0.7,1.4-1.2,2.9-1.2,4.5c0,5.2,4.3,9.5,9.5,9.5c5.2,0,9.5-4.3,9.5-9.5C73.5,60.3,72.3,57.8,70.4,56.1z M64,6.2
	c2.6,0,4.8,2.2,4.8,4.8c0,2.6-2.2,4.8-4.8,4.8c-2.6,0-4.8-2.2-4.8-4.8C59.2,8.4,61.3,6.2,64,6.2z M10,15.8c-2.6,0-4.8-2.2-4.8-4.8
	c0-2.6,2.2-4.8,4.8-4.8c2.6,0,4.8,2.2,4.8,4.8C14.8,13.7,12.7,15.8,10,15.8z M10,67.9c-2.6,0-4.8-2.2-4.8-4.8c0-2.6,2.2-4.8,4.8-4.8
	c2.6,0,4.8,2.2,4.8,4.8C14.8,65.8,12.7,67.9,10,67.9z M37.9,41.9c-2.6,0-4.8-2.2-4.8-4.8c0-2.6,2.2-4.8,4.8-4.8s4.8,2.2,4.8,4.8
	C42.7,39.7,40.5,41.9,37.9,41.9z M64,67.9c-2.6,0-4.8-2.2-4.8-4.8c0-2.6,2.2-4.8,4.8-4.8c2.6,0,4.8,2.2,4.8,4.8
	C68.8,65.8,66.6,67.9,64,67.9z"/>
</svg>
