<?xml version="1.0" encoding="utf-8"?>
<!-- Generator: Adobe Illustrator 21.0.0, SVG Export Plug-In . SVG Version: 6.00 Build 0)  -->
<svg version="1.1" id="图层_1" xmlns="http://www.w3.org/2000/svg" xmlns:xlink="http://www.w3.org/1999/xlink" x="0px" y="0px"
	 viewBox="0 0 74 74" style="enable-background:new 0 0 74 74;" xml:space="preserve">
<style type="text/css">
	.st0{fill:#3CA5C3;}
	.st1{fill:#0F3264;}
	.st2{fill:#0A55A5;}
</style>
<g>
	<path class="st0" d="M40.9,52.5L40.9,52.5c1.7-1.4,1.7-4,0-5.4l-3.3-2.5l0,0l-6.1-4.7c-1.2-0.9-2.8-1-4-0.1l0,0
		c-1.9,1.3-2.1,4.1-0.2,5.6l9.4,7.3C37.9,53.4,39.6,53.4,40.9,52.5z"/>
	<path class="st1" d="M3.7,49.8L33,72.6c2.3,1.7,5.5,0.1,5.5-2.7v0c0-1.1-0.5-2.1-1.3-2.7L13.6,48.9l5.9-3.9
		c1.9-1.3,2.1-4.1,0.2-5.6l0,0c-1.2-0.9-2.8-1-4-0.1l-12,8C2.8,47.8,2.8,49.1,3.7,49.8z"/>
	<path class="st1" d="M27.6,36.8L27.6,36.8c1.2,0.9,2.8,1,4,0.1l7.1-4.7L65.3,51c1.2,0.8,2.9,0.8,4-0.1v0c1.8-1.4,1.7-4.2-0.2-5.5
		L39.6,24.5c-0.5-0.4-1.2-0.4-1.8,0l-10.1,6.7C25.9,32.5,25.8,35.3,27.6,36.8z"/>
	<path class="st2" d="M21.6,40.8L21.6,40.8c1.2,0.9,2.8,1,4,0.1l0,0c1.9-1.3,2.1-4.1,0.2-5.6l0,0c-1.2-0.9-2.8-1-4-0.1l0,0
		C19.8,36.5,19.7,39.3,21.6,40.8z"/>
	<path class="st0" d="M13.6,25.9L38.7,9.2l26.6,18.4c0.6,0.4,1.3,0.6,2,0.6h0c3.3-0.1,4.5-4.4,1.8-6.3L39.6,1.6
		c-0.5-0.4-1.2-0.4-1.8,0L3.7,24.3c-0.9,0.6-0.9,1.9-0.1,2.6L16,36.4c1.1,0.9,2.7,0.9,3.8,0.1l0.1-0.1c1.9-1.3,2.1-4.1,0.2-5.6
		L13.6,25.9z"/>
</g>
</svg>
