<?xml version="1.0" encoding="utf-8"?>
<!-- Generator: Adobe Illustrator 21.0.0, SVG Export Plug-In . SVG Version: 6.00 Build 0)  -->
<svg version="1.1" id="图层_1" xmlns="http://www.w3.org/2000/svg" xmlns:xlink="http://www.w3.org/1999/xlink" x="0px" y="0px"
	 viewBox="0 0 119 22.5" style="enable-background:new 0 0 119 22.5;" xml:space="preserve">
<style type="text/css">
	.st0{fill:#FFFFFF;}
	.st1{fill:#3CA5C3;}
</style>
<g>
	<path class="st0" d="M0.2,0.5h5.5c3.7,0,7.2,2.3,7.2,7c0,4.8-4.1,7-7.5,7H0.2V0.5z M4.6,12.3c3.1,0,5.7-1.4,5.7-4.8S8,2.7,5,2.7
		H2.7v9.5H4.6z"/>
	<path class="st0" d="M18,0.5h2.2l5.4,14.1h-2.9l-1.3-3.2h-4.7l-1.3,3.2h-2.8L18,0.5z M20.5,9.2L19,3.4l-1.5,5.7H20.5z"/>
	<path class="st0" d="M28.5,2.7h-3.5l-0.9-2.3h11.1l-0.9,2.3h-3.4v11.8h-2.5V2.7z"/>
	<path class="st0" d="M39.5,0.5h2.2L47,14.5h-2.9l-1.3-3.2h-4.7l-1.3,3.2H34L39.5,0.5z M42,9.2l-1.5-5.7L39,9.2H42z"/>
	<path class="st0" d="M54.9,0.3c4.1,0,7,3,7,7.1s-2.9,7.1-7,7.1s-7-3-7-7.1S50.8,0.3,54.9,0.3z M54.9,13.4c3.5,0,5.7-2.6,5.7-5.9
		c0-3.4-2.2-5.9-5.7-5.9c-3.5,0-5.7,2.6-5.7,5.9C49.2,10.8,51.4,13.4,54.9,13.4z"/>
	<path class="st0" d="M69.4,10.2c0,1.6-0.2,4.3-3.7,4.3c-2,0-3.1-1.1-3.5-2.8l1.3-0.2c0.3,1.3,1.1,1.8,2.3,1.8
		c1.8,0,2.4-1.2,2.4-2.9V0.7h1.3V10.2z"/>
	<path class="st0" d="M78.3,0.3c4.1,0,7,3,7,7.1s-2.9,7.1-7,7.1s-7-3-7-7.1S74.2,0.3,78.3,0.3z M78.3,13.4c3.5,0,5.7-2.6,5.7-5.9
		c0-3.4-2.2-5.9-5.7-5.9s-5.7,2.6-5.7,5.9C72.6,10.8,74.8,13.4,78.3,13.4z"/>
	<path class="st1" d="M66.5,22.3c6.9,0,8.9-4.1,9.4-5.2l-2.7-0.7c-0.4,0.8-1.9,3.1-6.6,3.1c-4.6,0-6-2.3-6.3-3.1l-2.8,0.7
		C57.8,18.2,59.6,22.3,66.5,22.3z"/>
	<g>
		<path class="st0" d="M112,0.8h-1.4c-0.1,0.8-0.3,1.6-0.6,2.2h1.4C111.6,2.4,111.8,1.7,112,0.8z"/>
		<path class="st0" d="M106.7,2.9c-0.2-0.6-0.4-1.3-0.6-2.2h-1.4c0.1,0.9,0.3,1.6,0.6,2.2H106.7z"/>
		<polygon class="st0" points="109.8,9.8 109.8,9.8 109.8,9.8 		"/>
		<path class="st0" d="M94.7,0.3v14.2h5.8c1.4,0.1,2.1-0.6,2.1-2.1V0.3H94.7z M100.6,12.4c0,0.6-0.3,0.9-0.8,0.9h-3.2v-2.9l4-1V12.4
			z M100.6,8l-4,1V6.5l4-1V8z M100.6,4l-4,1V1.7h4V4z"/>
		<path class="st0" d="M116.2,11c1.1-1.6,1.6-4.1,1.7-7.4h0.3l0.5-1.3H115c0.2-0.6,0.3-1.3,0.5-2h-1.8c-0.2,1.8-0.7,3.2-1.6,4.1V3.4
			h-2.9v-3h-1.6v3h-3v0v1.3h1.4c-0.3,0.7-0.8,1.4-1.5,1.9v1c1.5-0.6,2.5-1.6,2.9-2.9h0.2v2.7h1.6V4.7h0.2c0.4,1.4,1.3,2.4,2.9,3V6.6
			c-0.7-0.6-1.2-1.2-1.4-1.9h1.2v1.1l0.6-0.3c0.3,2.4,0.9,4.3,1.7,5.6c-0.6,0.8-1.4,1.3-2.4,2v1.5c1.6-1,2.7-1.6,3.3-2.3
			c0.7,0.7,1.8,1.3,3.3,2.3v-1.7C117.6,12.2,116.8,11.9,116.2,11z M114.2,4.7h-0.6c0.3-0.3,0.6-0.7,0.8-1.1h1.8c0,2.4-0.4,4.4-1,5.7
			C114.7,8.2,114.4,6.7,114.2,4.7z"/>
		<path class="st0" d="M110.1,12.7c-0.2,0-0.4-0.1-0.5-0.2c1-0.8,1.5-2,1.8-2.8v0h0c0,0,0,0,0,0h0.5l0.5-1.2v0h-0.9v-1h-1.6v1h-3v-1
			h-1.6v1h-0.9v1.2h1c0,0,0,0,0,0l0,0c0,0,0,0,0,0h-1v0h1c0,0,0,0,0,0h0v0c0.4,0.8,0.9,2,1.8,2.8c-0.2,0.1-0.4,0.1-0.5,0.2
			c-0.4,0.1-0.7,0.1-1,0.2c-0.4,0-0.6,0.1-0.6,0.1v0.2v0.6v0.3v0.4c0.9-0.2,1.7-0.4,2.4-0.5c0.3-0.1,0.7-0.2,1-0.3c0,0,0,0,0,0v0
			c0.3,0.1,0.6,0.2,0.9,0.3c0.7,0.2,1.5,0.4,2.4,0.5v-0.4v-0.3v-0.6V13c0,0-0.2,0-0.6-0.1C110.8,12.9,110.5,12.8,110.1,12.7z
			 M108.3,11.9c-0.8-0.6-1.2-1.5-1.4-2.2v0c0,0,0,0,0,0h2.9C109.5,10.4,109.1,11.3,108.3,11.9z"/>
		<path class="st0" d="M93.5,3.7L94,2.4h-1.6V0.3h-1.9v2.1h-1.7v0v1.3h1.7c-0.3,1.9-1,3.9-1.9,5.8v2c0.9-1.2,1.5-2.4,2-3.5v6.5h1.9
			V7.4c0.6,1,1.2,1.9,1.7,2.5V8c-0.8-1.4-1.3-2.8-1.7-4.4H93.5z"/>
	</g>
</g>
</svg>
