<svg id="图层_1" data-name="图层 1" xmlns="http://www.w3.org/2000/svg" viewBox="0 0 516 71.71"><defs><style>.cls-1{fill:#41b7d3;}</style></defs><title>getintouch</title><path class="cls-1" d="M66.8,71.44H55.23l-1.06-7.52c-4.72,6.65-12.82,9-19.18,9C14.18,72.89.68,57,.68,37S14.18,1.18,35,1.18C49.26,1.18,64.49,8.8,66.12,26H48.2c-.58-5.88-6.36-9.45-13.59-9.45-11.56,0-16,10.22-16,20.43s4.43,20.43,16,20.43c8.87,0,14.84-4.14,15.81-10.41H37.89V33.76H66.8Z" transform="translate(-0.68 -1.18)"/><path class="cls-1" d="M76.34,2.63h54.84V17H94.27V29H128V42.92H94.27V56h37.88V71.44H76.34Z" transform="translate(-0.68 -1.18)"/><path class="cls-1" d="M195,18.05H174.45V71.44H156.52V18.05H136V2.63h59Z" transform="translate(-0.68 -1.18)"/><path class="cls-1" d="M224.55,27.73h11.39V71.44H224.55Z" transform="translate(-0.68 -1.18)"/><path class="cls-1" d="M242.49,27.73h11.69l15.18,26.94h.12V27.73H280.2V71.44H268.5L253.32,44.2h-.12V71.44H242.49Z" transform="translate(-0.68 -1.18)"/><path class="cls-1" d="M339.45,37.53h-13V71.44H315V37.53H302V27.73h37.46Z" transform="translate(-0.68 -1.18)"/><path class="cls-1" d="M363.15,26.82c13.77,0,21.55,10.1,21.55,22.77s-7.77,22.77-21.55,22.77S341.6,62.26,341.6,49.59,349.37,26.82,363.15,26.82Zm0,35.75c7.35,0,10.16-6.49,10.16-13s-2.82-13-10.16-13S353,43.1,353,49.59,355.8,62.57,363.15,62.57Z" transform="translate(-0.68 -1.18)"/><path class="cls-1" d="M427.43,53.38c0,12.67-5.82,19-19,19s-19-6.31-19-19V27.73h11.39V54.06c0,5.63,2.08,8.51,7.65,8.51S416,59.69,416,54.06V27.73h11.39Z" transform="translate(-0.68 -1.18)"/><path class="cls-1" d="M462.81,43.34c-.61-4.41-4-6.73-8.82-6.73-7.35,0-10.16,6.49-10.16,13s2.82,13,10.16,13c5.33,0,8.39-3.06,8.82-8.08H474.2c-.61,11.26-8.88,17.87-20,17.87-13.22,0-21.79-10.1-21.79-22.77S441,26.82,454.24,26.82c9.43,0,19.65,6,20,16.53Z" transform="translate(-0.68 -1.18)"/><path class="cls-1" d="M478.91,27.73H490.3V43.65h15V27.73h11.39V71.44H505.3v-18h-15v18H478.91Z" transform="translate(-0.68 -1.18)"/></svg>