<?xml version="1.0" encoding="utf-8"?>
<!-- Generator: Adobe Illustrator 21.0.0, SVG Export Plug-In . SVG Version: 6.00 Build 0)  -->
<svg version="1.1" id="图层_1" xmlns="http://www.w3.org/2000/svg" xmlns:xlink="http://www.w3.org/1999/xlink" x="0px" y="0px"
	 viewBox="0 0 102 20" style="enable-background:new 0 0 102 20;" xml:space="preserve">
<style type="text/css">
	.st0{fill:#0F3264;}
	.st1{fill:#3CA5C3;}
</style>
<g>
	<path class="st0" d="M1.1,0.8h4.7c3.1,0,6,1.9,6,5.9c0,4.1-3.4,5.9-6.2,5.9H1.1C1.1,12.6,1.1,0.8,1.1,0.8z M4.8,10.8
		c2.7,0,4.8-1.2,4.8-4s-1.9-4-4.5-4H3.2v8.1L4.8,10.8L4.8,10.8z"/>
	<path class="st0" d="M16.1,0.8h1.8l4.5,11.8H20l-1.1-2.8h-4l-1.1,2.8h-2.3L16.1,0.8z M18.2,8.1l-1.3-4.8l-1.2,4.8H18.2z"/>
	<path class="st0" d="M25,2.7h-2.9l-0.8-1.9h9.4L30,2.7h-2.9v9.9H25C25,12.6,25,2.7,25,2.7z"/>
	<path class="st0" d="M34.2,0.8H36l4.5,11.8h-2.3l-1.1-2.8h-4L32,12.6h-2.3L34.2,0.8z M36.3,8.1l-1.3-4.8l-1.3,4.8H36.3z"/>
	<path class="st0" d="M47.3,0.7c3.5,0,5.9,2.5,5.9,6s-2.4,6-5.9,6s-5.9-2.5-5.9-6S43.8,0.7,47.3,0.7z M47.3,11.7c3,0,4.8-2.2,4.8-5
		s-1.8-5-4.8-5c-3,0-4.8,2.2-4.8,5C42.4,9.5,44.3,11.7,47.3,11.7z"/>
	<path class="st0" d="M59.4,9c0,1.3-0.2,3.7-3.1,3.7c-1.7,0-2.7-0.9-3-2.3l1.1-0.2c0.3,1.1,0.9,1.6,1.9,1.6c1.5,0,2.1-1,2.1-2.4V1
		h1.1L59.4,9L59.4,9z"/>
	<path class="st0" d="M66.9,0.7c3.5,0,5.9,2.5,5.9,6s-2.4,6-5.9,6c-3.5,0-5.9-2.5-5.9-6S63.5,0.7,66.9,0.7z M66.9,11.7
		c3,0,4.8-2.2,4.8-5s-1.8-5-4.8-5c-3,0-4.8,2.2-4.8,5C62.2,9.5,64,11.7,66.9,11.7z"/>
	<path class="st1" d="M57,19.3c5.8,0,7.5-3.5,7.9-4.4l-2.2-0.6c-0.3,0.7-1.7,2.6-5.6,2.6S52,15,51.8,14.3l-2.4,0.6
		C49.7,15.8,51.2,19.3,57,19.3z"/>
	<g>
		<path class="st0" d="M95.3,1.1h-1.2c-0.1,0.7-0.3,1.3-0.5,1.8h1.2C95.1,2.5,95.3,1.9,95.3,1.1z"/>
		<path class="st0" d="M90.9,3c-0.3-0.5-0.3-1.2-0.5-1.8h-1.2c0.1,0.7,0.3,1.4,0.5,1.8H90.9z"/>
		<path class="st0" d="M93.5,8.7L93.5,8.7L93.5,8.7z"/>
		<path class="st0" d="M80.8,0.7v11.9h4.9c1.3,0.1,1.8-0.5,1.8-1.7V0.7H80.8z M85.8,11c0,0.5-0.3,0.8-0.7,0.8h-2.7V9.3l3.3-0.9V11z
			 M85.8,7.2l-3.3,0.9V6L85.8,5V7.2z M85.8,3.8l-3.3,0.9V1.9h3.3V3.8z"/>
		<path class="st0" d="M98.9,9.7c0.9-1.3,1.4-3.5,1.4-6.3h0.3l0.4-1.1h-3.2c0.2-0.5,0.3-1.1,0.4-1.7h-1.5c-0.2,1.5-0.6,2.7-1.4,3.5
			V3.3H93V0.7h-1.3v2.6h-2.6l0,0v1.1h1.2C90,5,89.6,5.5,89,6v0.8c1.3-0.5,2.1-1.3,2.4-2.5h0.3v2.3H93V4.3h0.2c0.3,1.2,1.1,2,2.4,2.5
			V5.9c-0.7-0.5-1-1-1.2-1.6h1v0.9L95.9,5c0.3,2,0.8,3.7,1.5,4.7c-0.5,0.7-1.2,1.1-2,1.7v1.3c1.3-0.8,2.3-1.4,2.8-1.9
			c0.6,0.7,1.5,1.2,2.8,1.9v-1.4C100.1,10.8,99.4,10.5,98.9,9.7z M97.3,4.4h-0.5c0.3-0.2,0.5-0.6,0.7-0.9h1.5c0,2.1-0.3,3.7-0.8,4.8
			C97.7,7.4,97.3,6,97.3,4.4z"/>
		<path class="st0" d="M93.8,11.2c-0.2,0-0.3-0.1-0.4-0.2c0.8-0.7,1.3-1.7,1.5-2.3l0,0l0,0l0,0h0.4l0.4-1l0,0H95V6.9h-1.3v0.8h-2.5
			V6.9h-1.3v0.8h-0.8v1.1h0.8l0,0l0,0l0,0h-0.8l0,0h0.8l0,0l0,0l0,0c0.3,0.7,0.8,1.7,1.5,2.3c-0.2,0.1-0.3,0.1-0.4,0.2
			c-0.3,0.1-0.6,0.1-0.8,0.2c-0.3,0-0.5,0.1-0.5,0.1v0V12v0.2v0.3c0.8-0.2,1.4-0.3,2-0.5c0.3-0.1,0.6-0.2,0.8-0.2l0,0l0,0
			c0.3,0.1,0.5,0.2,0.8,0.2c0.6,0.2,1.3,0.3,2,0.5v-0.3V12v-0.5v-0.2c0,0-0.2,0-0.5-0.1C94.4,11.3,94.1,11.3,93.8,11.2z M92.3,10.5
			c-0.7-0.5-1-1.3-1.2-1.8l0,0l0,0h2.4C93.3,9.2,92.9,10,92.3,10.5z"/>
		<path class="st0" d="M79.8,3.5l0.4-1.1h-1.3V0.7h-1.6v1.8h-1.5l0,0v1.1h1.4c-0.3,1.7-0.8,3.2-1.7,4.9v1.7c0.8-1.1,1.3-2,1.7-2.9
			v5.4h1.6v-6c0.5,0.8,1,1.6,1.5,2.2V7.2c-0.7-1.2-1.2-2.4-1.4-3.7C78.9,3.5,79.8,3.5,79.8,3.5z"/>
	</g>
</g>
</svg>
