<?xml version="1.0" encoding="utf-8"?>
<!-- Generator: Adobe Illustrator 21.0.0, SVG Export Plug-In . SVG Version: 6.00 Build 0)  -->
<svg version="1.1" id="图层_1" xmlns="http://www.w3.org/2000/svg" xmlns:xlink="http://www.w3.org/1999/xlink" x="0px" y="0px"
	 viewBox="0 0 116 38" style="enable-background:new 0 0 116 38;" xml:space="preserve">
<style type="text/css">
	.st0{fill:#3CA5C3;}
	.st1{fill:#0F3264;}
</style>
<g>
	<g>
		<path class="st0" d="M92.5,0.3c-9.5,0-12.3,5.6-12.9,7.1l3.7,1.1c0.5-1.1,2.7-4.3,9.2-4.3c6.3,0,8.2,3,8.7,4.1l3.8-0.8
			C104.5,6,102,0.3,92.5,0.3z"/>
	</g>
	<g>
		<path class="st1" d="M18.5,10.4C16.7,8.6,15.1,8,13.4,8C8.4,8,5,11.9,5,16.7c0,5.2,3.3,9,8.4,9c2,0,3.9-0.9,5.5-3l3.6,2.5
			c-2.2,3-5.5,4.3-9.1,4.3C5.9,29.7,0.5,24.6,0.5,17c0-7.8,5.4-12.9,12.9-12.9c3.3,0,6.1,1.1,8.5,3.9L18.5,10.4z"/>
		<path class="st1" d="M27.1,4.5c1.5,0,2.7,1.1,2.7,2.5s-1.2,2.5-2.7,2.5c-1.5,0-2.6-1.2-2.6-2.5C24.5,5.7,25.6,4.5,27.1,4.5z
			 M25.1,12.6h4.1v16.5h-4.1V12.6z"/>
		<path class="st1" d="M32,16.1v-3.5h3.4V7.8h4.1v4.8h4.5v3.5h-4.5v7.2c0,1.7,0.5,2.7,2.3,2.7c0.7,0,1.7-0.1,2.2-0.5V29
			c-0.9,0.4-2.3,0.6-3.3,0.6c-4.4,0-5.4-2-5.4-5.8v-7.6H32z"/>
		<path class="st1" d="M45.1,12.6h4.5L54.2,24h0.1l4.1-11.5h4.3l-7.8,20.1c-1.2,3.1-2.7,4.7-6.3,4.7c-1.1,0-2.1-0.1-3.2-0.4l0.5-3.7
			c0.7,0.2,1.4,0.4,2.1,0.4c2,0,2.6-0.7,3.3-2.4l0.8-2L45.1,12.6z"/>
		<path class="st1" d="M81.7,26.1c-1.6,2.4-4.1,3.4-6.9,3.4c-4.9,0-8-3.5-8-8.4c0-4.7,3.3-8.3,7.9-8.3c4.9,0,7.5,3.8,7.5,7.4v1.4
			H68.8c0,1.7,1.2,6,6,6c2.1,0,4.3-1.1,5.3-2.8L81.7,26.1z M80.1,19.8c0-2.8-2.4-5.2-5.5-5.2c-4.5,0-5.8,4.3-5.8,5.2H80.1z"/>
		<path class="st1" d="M90.4,34c-0.8,2-2.1,3.3-4.4,3.3c-0.7,0-1.4-0.1-2-0.3l0.2-1.9c0.6,0.2,1.2,0.4,1.9,0.4
			c1.5,0,2.2-1.4,2.6-2.6l1.4-3.7l-6.5-16H86l5.3,13.4l5.1-13.4h2.2L90.4,34z"/>
		<path class="st1" d="M115,26.1c-1.6,2.4-4.1,3.4-6.9,3.4c-4.9,0-8-3.5-8-8.4c0-4.7,3.3-8.3,7.9-8.3c4.9,0,7.5,3.8,7.5,7.4v1.4
			h-13.3c0,1.7,1.2,6,6,6c2.1,0,4.3-1.1,5.3-2.8L115,26.1z M113.4,19.8c0-2.8-2.4-5.2-5.5-5.2c-4.5,0-5.8,4.3-5.8,5.2H113.4z"/>
	</g>
</g>
</svg>
