<?xml version="1.0" encoding="utf-8"?>
<!-- Generator: Adobe Illustrator 21.0.0, SVG Export Plug-In . SVG Version: 6.00 Build 0)  -->
<svg version="1.1" id="图层_1" xmlns="http://www.w3.org/2000/svg" xmlns:xlink="http://www.w3.org/1999/xlink" x="0px" y="0px"
	 viewBox="0 0 156 26" style="enable-background:new 0 0 156 26;" xml:space="preserve">
<style type="text/css">
	.st0{fill:#0F3264;}
	.st1{fill:#3CA5C3;}
</style>
<g>
	<g>
		<path class="st0" d="M0.4,0.4h9.7c6.5,0,12.5,4,12.5,12.3c0,8.4-7.1,12.3-13,12.3H0.4V0.4z M8.1,21c5.5,0,10-2.4,10-8.3
			c0-6-3.9-8.3-9.2-8.3h-4V21H8.1z"/>
		<path class="st0" d="M36.1,22.6H36c-1.2,1.9-3.1,2.7-5.3,2.7c-3.1,0-6.1-1.7-6.1-5c0-5.4,6.3-5.8,10.5-5.8h1v-0.5
			c0-2-1.6-3.1-3.8-3.1c-1.7,0-3.3,0.7-4.4,1.7l-2.2-2.2c1.8-1.9,4.4-2.7,7.1-2.7c7.1,0,7.1,5.1,7.1,7.5v9.6h-3.7V22.6z M35.9,17.5
			H35c-2.3,0-6.3,0.2-6.3,2.6c0,1.5,1.6,2.2,2.9,2.2c2.8,0,4.2-1.5,4.2-3.8V17.5z"/>
		<path class="st0" d="M41.7,11.8V8.3h3.4V3.4h4.2v4.8h4.6v3.5h-4.6v7.3c0,1.7,0.5,2.7,2.3,2.7c0.7,0,1.7-0.1,2.3-0.5v3.5
			c-0.9,0.4-2.3,0.6-3.3,0.6c-4.4,0-5.5-2-5.5-5.9v-7.6H41.7z"/>
		<path class="st0" d="M66.9,22.6h-0.1c-1.2,1.9-3.1,2.7-5.3,2.7c-3.1,0-6.1-1.7-6.1-5c0-5.4,6.3-5.8,10.5-5.8h1v-0.5
			c0-2-1.6-3.1-3.8-3.1c-1.7,0-3.3,0.7-4.4,1.7l-2.2-2.2c1.8-1.9,4.4-2.7,7.1-2.7c7.1,0,7.1,5.1,7.1,7.5v9.6h-3.7V22.6z M66.6,17.5
			h-0.9c-2.3,0-6.3,0.2-6.3,2.6c0,1.5,1.6,2.2,2.9,2.2c2.8,0,4.2-1.5,4.2-3.8V17.5z"/>
		<path class="st0" d="M77.2,0.4h3.4l9,20.6l9-20.6h3.3v24.6h-2.3V3.3h-0.1l-9.4,21.7h-1L79.6,3.3h-0.1v21.7h-2.3V0.4z"/>
		<path class="st0" d="M106.7,8.9h2.1v16h-2.1V8.9z"/>
		<path class="st0" d="M117.4,16.3l-5.7-7.4h2.7l4.4,6.1l4.4-6.1h2.6l-5.7,7.4l6.9,8.7h-2.7l-5.6-7.3l-5.5,7.3h-2.5L117.4,16.3z"/>
		<path class="st0" d="M142.8,21.9c-1.6,2.4-4.1,3.4-6.9,3.4c-4.9,0-8.1-3.5-8.1-8.5c0-4.8,3.3-8.4,8-8.4c4.9,0,7.5,3.8,7.5,7.5v1.5
			h-13.5c0,1.7,1.2,6,6.1,6c2.1,0,4.3-1.1,5.4-2.8L142.8,21.9z M141.2,15.6c0-2.8-2.5-5.2-5.6-5.2c-4.5,0-5.8,4.4-5.8,5.2H141.2z"/>
		<path class="st0" d="M146.6,13.4c0-1.2-0.2-3.7-0.2-4.5h2.1c0,1.2,0.1,2.5,0.1,2.8c1-1.9,2.7-3.2,5.1-3.2c0.4,0,0.8,0.1,1.2,0.2
			l-0.2,2c-0.3-0.1-0.6-0.1-0.8-0.1c-3.6,0-5.2,2.5-5.2,5.6v8.7h-2.1V13.4z"/>
	</g>
	<circle class="st1" cx="107.8" cy="2.5" r="1.6"/>
</g>
</svg>
