<?xml version="1.0" encoding="utf-8"?>
<!-- Generator: Adobe Illustrator 21.0.0, SVG Export Plug-In . SVG Version: 6.00 Build 0)  -->
<svg version="1.1" id="图层_1" xmlns="http://www.w3.org/2000/svg" xmlns:xlink="http://www.w3.org/1999/xlink" x="0px" y="0px"
	 viewBox="0 0 158 30" style="enable-background:new 0 0 158 30;" xml:space="preserve">
<style type="text/css">
	.st0{fill:#3CA5C3;}
	.st1{fill:#0F3264;}
</style>
<g>
	<g>
		<path class="st0" d="M132.4,0.6c-9.5,0-12.3,5.5-12.9,7l3.7,1.1c0.5-1.1,2.7-4.3,9.1-4.3c6.3,0,8.2,3,8.7,4.1l3.8-0.8
			C144.4,6.2,142,0.6,132.4,0.6z"/>
	</g>
	<g>
		<path class="st1" d="M0.6,4.2h9.8c6.5,0,12.6,4,12.6,12.4C23,25.1,15.8,29,9.8,29H0.6V4.2z M8.3,25.1c5.5,0,10.1-2.4,10.1-8.4
			s-3.9-8.4-9.3-8.4h-4v16.9h3.2C8.3,25.2,8.3,25.1,8.3,25.1z"/>
		<path class="st1" d="M36.7,26.7L36.7,26.7c-1.3,1.9-3.3,2.7-5.5,2.7c-3.1,0-6.1-1.7-6.1-5.1c0-5.5,6.4-5.9,10.6-5.9h1.1v-0.5
			c0-2.1-1.6-3.2-3.9-3.2c-1.8,0-3.4,0.7-4.5,1.8l-2.2-2.2c1.9-1.9,4.5-2.7,7.2-2.7c7.2,0,7.2,5.2,7.2,7.6v9.7h-3.8L36.7,26.7
			L36.7,26.7z M36.5,21.5h-0.9c-2.3,0-6.3,0.2-6.3,2.6c0,1.5,1.6,2.2,3,2.2c2.9,0,4.2-1.5,4.2-3.9V21.5z"/>
		<path class="st1" d="M42.4,15.8v-3.6h3.5V7.3h4.2v4.9h4.6v3.6h-4.6v7.4c0,1.7,0.5,2.7,2.4,2.7c0.7,0,1.8-0.1,2.3-0.5v3.5
			c-0.9,0.4-2.4,0.6-3.3,0.6c-4.5,0-5.5-2-5.5-6v-7.7C46,15.8,42.4,15.8,42.4,15.8z"/>
		<path class="st1" d="M67.8,26.7L67.8,26.7c-1.3,1.9-3.3,2.7-5.5,2.7c-3.1,0-6.1-1.7-6.1-5.1c0-5.5,6.4-5.9,10.6-5.9h1.1v-0.5
			c0-2.1-1.6-3.2-3.9-3.2c-1.8,0-3.4,0.7-4.5,1.8l-2.2-2.2c1.9-1.9,4.5-2.7,7.2-2.7c7.2,0,7.2,5.2,7.2,7.6v9.7h-3.8L67.8,26.7
			L67.8,26.7z M67.6,21.5h-0.9c-2.3,0-6.3,0.2-6.3,2.6c0,1.5,1.6,2.2,3,2.2c2.9,0,4.2-1.5,4.2-3.9V21.5z"/>
		<path class="st1" d="M79.2,14.7h-3.4v-1.9h3.4V7.5c0-4.2,2.8-5.4,4.8-5.4c1,0,1.8,0.1,2.4,0.4L86,4.3C85.5,4.1,84.9,4,84.1,4
			c-1.9,0-2.8,1.4-2.8,4.3v4.5h3.8v1.9h-3.8V29h-2.1V14.7z"/>
		<path class="st1" d="M100.7,24.5c0,1.2,0.2,3.7,0.2,4.6h-2.1c0-1.2-0.1-2.5-0.1-2.8h-0.1c-0.8,1.8-2.9,3.3-5.5,3.3
			c-5.1,0-6.2-3.4-6.2-7v-9.7H89v9.6c0,2.6,0.7,5.2,4.1,5.2c3.1,0,5.6-2.2,5.6-6.6V13h2.1L100.7,24.5L100.7,24.5z"/>
		<path class="st1" d="M105.1,24.9c0.9,1.7,2.8,2.7,4.7,2.7c1.8,0,3.7-1.1,3.7-3c0-4.5-9.6-1.3-9.6-7.5c0-3.2,2.9-4.7,5.5-4.7
			s4.7,1,5.7,3.1l-1.9,1.1c-0.8-1.5-1.9-2.3-3.8-2.3c-1.5,0-3.4,0.9-3.4,2.6c0,4.4,9.6,1,9.6,7.6c0,3.3-2.8,5-5.9,5
			c-2.8,0-5.3-1.1-6.5-3.3L105.1,24.9z"/>
		<path class="st1" d="M119,12.8h2.1V29H119V12.8z"/>
		<path class="st1" d="M132.5,12.4c5,0,8.5,3.6,8.5,8.5s-3.5,8.5-8.5,8.5s-8.5-3.6-8.5-8.5S127.5,12.4,132.5,12.4z M132.5,27.6
			c4,0,6.4-3,6.4-6.6s-2.5-6.6-6.4-6.6c-4,0-6.4,3-6.4,6.6S128.6,27.6,132.5,27.6z"/>
		<path class="st1" d="M143.6,17.4c0-1.2-0.2-3.7-0.2-4.6h2.1c0,1.2,0.1,2.5,0.1,2.8h0.1c0.8-1.8,2.9-3.3,5.5-3.3
			c5.1,0,6.2,3.4,6.2,7V29h-2.1v-9.6c0-2.6-0.7-5.2-4.1-5.2c-3.1,0-5.6,2.2-5.6,6.6v8.1h-2.1V17.4H143.6z"/>
	</g>
</g>
</svg>
