<?xml version="1.0" encoding="utf-8"?>
<!-- Generator: Adobe Illustrator 21.0.0, SVG Export Plug-In . SVG Version: 6.00 Build 0)  -->
<svg version="1.1" id="图层_1" xmlns="http://www.w3.org/2000/svg" xmlns:xlink="http://www.w3.org/1999/xlink" x="0px" y="0px"
	 viewBox="0 0 123 38" style="enable-background:new 0 0 123 38;" xml:space="preserve">
<style type="text/css">
	.st0{fill:#3CA5C3;}
	.st1{fill:#0F3264;}
</style>
<g>
	<g>
		<path class="st0" d="M99,0.4c-9.4,0-12.1,5.5-12.7,7l3.7,1.1c0.5-1.1,2.6-4.2,9-4.2c6.3,0,8.1,3,8.6,4.1l3.8-0.8
			C110.9,6,108.4,0.4,99,0.4z"/>
	</g>
	<g>
		<path class="st1" d="M0.6,5.2h9.5c6.3,0,12.2,3.9,12.2,12c0,8.2-7,12-12.7,12h-9V5.2z M8.1,25.4c5.4,0,9.7-2.3,9.7-8.2
			c0-5.8-3.8-8.2-9-8.2H4.9v16.3H8.1z"/>
		<path class="st1" d="M35.5,27h-0.1c-1.2,1.8-3.1,2.6-5.2,2.6c-3,0-5.9-1.7-5.9-4.9c0-5.3,6.2-5.7,10.3-5.7h1v-0.4
			c0-2-1.6-3.1-3.7-3.1c-1.7,0-3.3,0.7-4.3,1.7l-2.1-2.1c1.8-1.8,4.3-2.6,6.9-2.6c7,0,7,5,7,7.3v9.4h-3.7V27z M35.3,22h-0.8
			c-2.2,0-6.1,0.2-6.1,2.5c0,1.5,1.5,2.1,2.9,2.1c2.8,0,4.1-1.5,4.1-3.7V22z"/>
		<path class="st1" d="M41,16.4V13h3.4V8.3h4.1V13h4.5v3.5h-4.5v7.1c0,1.6,0.5,2.6,2.3,2.6c0.7,0,1.7-0.1,2.2-0.5v3.4
			c-0.8,0.4-2.3,0.5-3.2,0.5c-4.3,0-5.3-1.9-5.3-5.8v-7.5H41z"/>
		<path class="st1" d="M65.6,27h-0.1c-1.2,1.8-3.1,2.6-5.2,2.6c-3,0-5.9-1.7-5.9-4.9c0-5.3,6.2-5.7,10.3-5.7h1v-0.4
			c0-2-1.6-3.1-3.7-3.1c-1.7,0-3.3,0.7-4.3,1.7l-2.1-2.1c1.8-1.8,4.3-2.6,6.9-2.6c7,0,7,5,7,7.3v9.4h-3.7V27z M65.3,22h-0.8
			c-2.2,0-6.1,0.2-6.1,2.5c0,1.5,1.5,2.1,2.9,2.1c2.8,0,4.1-1.5,4.1-3.7V22z"/>
		<path class="st1" d="M89.2,26.3c-1.6,2.4-4,3.4-6.8,3.4c-4.8,0-7.9-3.4-7.9-8.3c0-4.7,3.3-8.2,7.8-8.2c4.8,0,7.4,3.7,7.4,7.3v1.4
			H76.5c0,1.7,1.2,5.9,5.9,5.9c2.1,0,4.2-1.1,5.3-2.8L89.2,26.3z M87.7,20.1c0-2.8-2.4-5.1-5.4-5.1c-4.4,0-5.7,4.3-5.7,5.1H87.7z"/>
		<path class="st1" d="M97.8,34.1c-0.8,2-2.1,3.3-4.3,3.3c-0.7,0-1.4-0.1-2-0.3l0.2-1.9c0.6,0.2,1.2,0.4,1.8,0.4
			c1.5,0,2.1-1.4,2.6-2.6l1.4-3.6l-6.4-15.8h2.3l5.2,13.2l5.1-13.2h2.2L97.8,34.1z"/>
		<path class="st1" d="M122.2,26.3c-1.6,2.4-4,3.4-6.8,3.4c-4.8,0-7.9-3.4-7.9-8.3c0-4.7,3.3-8.2,7.8-8.2c4.8,0,7.4,3.7,7.4,7.3v1.4
			h-13.2c0,1.7,1.2,5.9,5.9,5.9c2.1,0,4.2-1.1,5.3-2.8L122.2,26.3z M120.6,20.1c0-2.8-2.4-5.1-5.4-5.1c-4.4,0-5.7,4.3-5.7,5.1H120.6
			z"/>
	</g>
</g>
</svg>
