<?xml version="1.0" encoding="utf-8"?>
<!-- Generator: Adobe Illustrator 21.0.0, SVG Export Plug-In . SVG Version: 6.00 Build 0)  -->
<svg version="1.1" id="图层_1" xmlns="http://www.w3.org/2000/svg" xmlns:xlink="http://www.w3.org/1999/xlink" x="0px" y="0px"
	 viewBox="0 0 184 184" style="enable-background:new 0 0 184 184;" xml:space="preserve">
<style type="text/css">
	.st0{fill:#0F3264;}
	.st1{font-family:'PingFang-SC-Regular';}
	.st2{font-size:20px;}
	.st3{fill:#DCDCDC;}
	.st4{fill:#3CA5C3;}
</style>
<text transform="matrix(1 0 0 1 52.5416 170.3877)" class="st0 st1 st2">交通出行</text>
<g>
	<path class="st3" d="M183,1v182H1V1H183 M184,0H0v184h184V0L184,0z"/>
</g>
<g>
	<g>
		<path class="st0" d="M128,110.6c-0.3,0-0.7-0.2-0.8-0.6l-22-62.5c-0.2-0.4,0.1-0.9,0.5-1.1c0.4-0.2,0.9,0.1,1.1,0.5l22,62.5
			c0.2,0.4-0.1,0.9-0.5,1.1C128.2,110.6,128.1,110.6,128,110.6z"/>
	</g>
	<g>
		<path class="st0" d="M56.2,109.7c-0.1,0-0.2,0-0.3,0c-0.4-0.2-0.7-0.6-0.5-1.1l11-32.9c0.2-0.4,0.6-0.7,1.1-0.5
			c0.4,0.2,0.7,0.6,0.5,1.1l-11,32.9C56.9,109.5,56.5,109.7,56.2,109.7z"/>
	</g>
	<g>
		<path class="st0" d="M107.2,55.9h-7.9c-0.5,0-0.8-0.4-0.8-0.8c0-0.5,0.4-0.8,0.8-0.8h7.9c0.5,0,0.8,0.4,0.8,0.8
			C108,55.6,107.6,55.9,107.2,55.9z"/>
	</g>
	<g>
		<path class="st0" d="M91.7,109.7c-0.2,0-0.4-0.1-0.5-0.2c-0.4-0.3-0.4-0.8-0.1-1.2l25.3-32.1c0.2-0.2,0.4-0.3,0.7-0.3h17.9
			l2.9-10.1H117c-0.5,0-0.8-0.4-0.8-0.8c0-0.5,0.4-0.8,0.8-0.8h22c0.3,0,0.5,0.1,0.7,0.3c0.2,0.2,0.2,0.5,0.1,0.7L136.4,77
			c-0.1,0.4-0.4,0.6-0.8,0.6h-18.2l-25.1,31.8C92.2,109.6,91.9,109.7,91.7,109.7z"/>
	</g>
	<g>
		<path class="st0" d="M91.7,109.7c-0.3,0-0.5-0.1-0.7-0.3L66.5,76.5c-0.1-0.1-0.2-0.3-0.2-0.5v-7.6c0-0.5,0.4-0.8,0.8-0.8
			c0.5,0,0.8,0.4,0.8,0.8v7.3l24.3,32.7c0.3,0.4,0.2,0.9-0.2,1.2C92,109.7,91.8,109.7,91.7,109.7z"/>
	</g>
	<g>
		<path class="st0" d="M128,134.5c-13.5,0-24.5-11-24.5-24.5s11-24.5,24.5-24.5s24.5,11,24.5,24.5S141.5,134.5,128,134.5z M128,87.2
			c-12.6,0-22.8,10.2-22.8,22.8s10.2,22.8,22.8,22.8c12.6,0,22.8-10.2,22.8-22.8S140.5,87.2,128,87.2z"/>
	</g>
	<g>
		<path class="st4" d="M128,127.3c-9.5,0-17.3-7.8-17.3-17.3s7.8-17.3,17.3-17.3s17.3,7.8,17.3,17.3S137.5,127.3,128,127.3z
			 M128,93.5c-9.1,0-16.5,7.4-16.5,16.5s7.4,16.5,16.5,16.5s16.5-7.4,16.5-16.5S137.1,93.5,128,93.5z"/>
	</g>
	<g>
		<path class="st4" d="M128,115.5c-3,0-5.5-2.5-5.5-5.5c0-3,2.5-5.5,5.5-5.5c3,0,5.5,2.5,5.5,5.5C133.5,113,131,115.5,128,115.5z
			 M128,105.4c-2.6,0-4.6,2.1-4.6,4.6c0,2.6,2.1,4.6,4.6,4.6s4.6-2.1,4.6-4.6C132.6,107.5,130.5,105.4,128,105.4z"/>
	</g>
	<g>
		<circle class="st0" cx="128" cy="110" r="2.8"/>
	</g>
	<g>
		<path class="st0" d="M55.6,134.5c-13.5,0-24.5-11-24.5-24.5s11-24.5,24.5-24.5s24.5,11,24.5,24.5S69.1,134.5,55.6,134.5z
			 M55.6,87.2C43,87.2,32.8,97.4,32.8,110s10.2,22.8,22.8,22.8s22.8-10.2,22.8-22.8S68.2,87.2,55.6,87.2z"/>
	</g>
	<g>
		<path class="st4" d="M55.6,127.3c-9.5,0-17.3-7.8-17.3-17.3s7.8-17.3,17.3-17.3s17.3,7.8,17.3,17.3S65.2,127.3,55.6,127.3z
			 M55.6,93.5c-9.1,0-16.5,7.4-16.5,16.5s7.4,16.5,16.5,16.5s16.5-7.4,16.5-16.5S64.7,93.5,55.6,93.5z"/>
	</g>
	<g>
		<path class="st4" d="M55.6,115.5c-3,0-5.5-2.5-5.5-5.5c0-3,2.5-5.5,5.5-5.5c3,0,5.5,2.5,5.5,5.5C61.1,113,58.6,115.5,55.6,115.5z
			 M55.6,105.4c-2.6,0-4.6,2.1-4.6,4.6c0,2.6,2.1,4.6,4.6,4.6s4.6-2.1,4.6-4.6C60.3,107.5,58.2,105.4,55.6,105.4z"/>
	</g>
	<g>
		<path class="st0" d="M81.5,68.4H64.6c-0.3,0-0.5-0.1-0.6-0.3L59.8,63c-0.3-0.4-0.2-0.9,0.1-1.2c0.4-0.3,0.9-0.2,1.2,0.1l4,4.8
			h16.5c0.5,0,0.8,0.4,0.8,0.8C82.4,68,82,68.4,81.5,68.4z"/>
	</g>
	<g>
		
			<rect x="88.3" y="119.9" transform="matrix(0.1113 -0.9938 0.9938 0.1113 -37.7086 198.4056)" class="st4" width="7.6" height="0.8"/>
	</g>
	<g>
		<path class="st0" d="M95,124.9h-6.8c-0.5,0-0.8-0.4-0.8-0.8c0-0.5,0.4-0.8,0.8-0.8H95c0.5,0,0.8,0.4,0.8,0.8
			C95.9,124.6,95.5,124.9,95,124.9z"/>
	</g>
	<g>
		<path class="st4" d="M91.7,110.4H55.3c-0.2,0-0.4-0.2-0.4-0.4c0-0.2,0.2-0.4,0.4-0.4h36.3c0.2,0,0.4,0.2,0.4,0.4
			C92.1,110.3,91.9,110.4,91.7,110.4z"/>
	</g>
	<g>
		<path class="st4" d="M91.7,117.2c-4,0-7.2-3.2-7.2-7.2c0-4,3.2-7.2,7.2-7.2s7.2,3.2,7.2,7.2C98.8,114,95.6,117.2,91.7,117.2z
			 M91.7,103.7c-3.5,0-6.3,2.8-6.3,6.3c0,3.5,2.8,6.3,6.3,6.3c3.5,0,6.3-2.8,6.3-6.3C98,106.5,95.1,103.7,91.7,103.7z"/>
	</g>
	<g>
		<path class="st0" d="M35.9,138.5h-5.1c-0.5,0-0.8-0.4-0.8-0.8c0-0.5,0.4-0.8,0.8-0.8h5.1c0.5,0,0.8,0.4,0.8,0.8
			C36.8,138.1,36.4,138.5,35.9,138.5z"/>
	</g>
	<g>
		<path class="st0" d="M71.4,138.5H41c-0.5,0-0.8-0.4-0.8-0.8c0-0.5,0.4-0.8,0.8-0.8h30.4c0.5,0,0.8,0.4,0.8,0.8
			C72.2,138.1,71.9,138.5,71.4,138.5z"/>
	</g>
	<g>
		<path class="st0" d="M154.2,138.5h-47.3c-0.5,0-0.8-0.4-0.8-0.8c0-0.5,0.4-0.8,0.8-0.8h47.3c0.5,0,0.8,0.4,0.8,0.8
			C155,138.1,154.6,138.5,154.2,138.5z"/>
	</g>
	<g>
		<path class="st0" d="M103.5,138.5H74.8c-0.5,0-0.8-0.4-0.8-0.8c0-0.5,0.4-0.8,0.8-0.8h28.7c0.5,0,0.8,0.4,0.8,0.8
			C104.3,138.1,103.9,138.5,103.5,138.5z"/>
	</g>
	<g>
		<path class="st4" d="M132.2,52.7h-17.7c-0.2,0-0.4-0.2-0.4-0.4c0-0.2,0.2-0.4,0.4-0.4h17.7c2.1,0,3.8-1.7,3.8-3.8
			c0-2.1-1.7-3.8-3.8-3.8h-2.5c-0.2,0-0.4-0.2-0.4-0.4c0-4.4-3.6-8-8-8s-8,3.6-8,8c0,0.2-0.2,0.4-0.4,0.4h-1.7
			c-0.2,0-0.4-0.2-0.4-0.4c0-0.2,0.2-0.4,0.4-0.4h1.3c0.2-4.7,4.1-8.4,8.9-8.4c4.7,0,8.6,3.8,8.9,8.4h2.1c2.6,0,4.6,2.1,4.6,4.6
			C136.8,50.6,134.8,52.7,132.2,52.7z"/>
	</g>
	<g>
		<path class="st4" d="M62.2,38.9H49.4c-1.6,0-2.9-1.3-2.9-2.9s1.3-2.9,2.9-2.9h1.1c0.2-2.8,2.5-4.9,5.3-4.9c2.8,0,5.1,2.2,5.3,4.9
			h1.1c1.6,0,2.9,1.3,2.9,2.9S63.8,38.9,62.2,38.9z M59.7,38.1h2.5c1.1,0,2-0.9,2-2c0-1.1-0.9-2-2-2h-1.5c-0.2,0-0.4-0.2-0.4-0.4
			c0-2.5-2-4.5-4.5-4.5c-2.5,0-4.5,2-4.5,4.5c0,0.2-0.2,0.4-0.4,0.4h-1.5c-1.1,0-2,0.9-2,2c0,1.1,0.9,2,2,2H59.7z"/>
	</g>
	<g>
		<circle class="st0" cx="55.6" cy="110" r="2.8"/>
	</g>
	<g>
		<circle class="st0" cx="91.7" cy="110" r="3.4"/>
	</g>
</g>
</svg>
