<?xml version="1.0" encoding="utf-8"?>
<!-- Generator: Adobe Illustrator 21.0.0, SVG Export Plug-In . SVG Version: 6.00 Build 0)  -->
<svg version="1.1" id="图层_1" xmlns="http://www.w3.org/2000/svg" xmlns:xlink="http://www.w3.org/1999/xlink" x="0px" y="0px"
	 viewBox="0 0 184 184" style="enable-background:new 0 0 184 184;" xml:space="preserve">
<style type="text/css">
	.st0{fill:#0F3264;}
	.st1{font-family:'PingFang-SC-Regular';}
	.st2{font-size:20px;}
	.st3{fill:#DCDCDC;}
	.st4{fill:#3CA5C3;}
</style>
<text transform="matrix(1 0 0 1 72.5416 170.3877)" class="st0 st1 st2">医疗</text>
<g>
	<path class="st3" d="M183,1v182H1V1H183 M184,0H0v184h184V0L184,0z"/>
</g>
<g>
	<g>
		<path class="st0" d="M39.9,138.4h-5.1c-0.5,0-0.8-0.4-0.8-0.8c0-0.5,0.4-0.8,0.8-0.8h5.1c0.5,0,0.8,0.4,0.8,0.8
			C40.8,138,40.4,138.4,39.9,138.4z"/>
	</g>
	<g>
		<path class="st0" d="M85.5,138.4H45c-0.5,0-0.8-0.4-0.8-0.8c0-0.5,0.4-0.8,0.8-0.8h40.5c0.5,0,0.8,0.4,0.8,0.8
			C86.4,138,86,138.4,85.5,138.4z"/>
	</g>
	<g>
		<path class="st0" d="M158.2,138.4h-5.1c-0.5,0-0.8-0.4-0.8-0.8c0-0.5,0.4-0.8,0.8-0.8h5.1c0.5,0,0.8,0.4,0.8,0.8
			C159,138,158.6,138.4,158.2,138.4z"/>
	</g>
	<g>
		<path class="st0" d="M148,138.4H90.6c-0.5,0-0.8-0.4-0.8-0.8c0-0.5,0.4-0.8,0.8-0.8H148c0.5,0,0.8,0.4,0.8,0.8
			C148.9,138,148.5,138.4,148,138.4z"/>
	</g>
	<g>
		<g>
			<path class="st4" d="M138.7,68c-0.1,0-0.2,0-0.3-0.1c-0.2-0.2-0.2-0.4,0-0.6l7.7-7.9c0.2-0.2,0.4-0.2,0.6,0
				c0.2,0.2,0.2,0.4,0,0.6l-7.7,7.9C138.9,68,138.8,68,138.7,68z"/>
		</g>
		<g>
			<path class="st4" d="M119.3,120.4c-0.2,0-0.4-0.2-0.4-0.4v-6.8c0-0.2,0.2-0.4,0.4-0.4c0.2,0,0.4,0.2,0.4,0.4v6.8
				C119.7,120.2,119.5,120.4,119.3,120.4z"/>
		</g>
		<g>
			<path class="st4" d="M137.9,49.4c-2.6,0-4.6-2.1-4.6-4.6c0-2.6,2.1-4.6,4.6-4.6s4.6,2.1,4.6,4.6
				C142.5,47.3,140.4,49.4,137.9,49.4z M137.9,41c-2.1,0-3.8,1.7-3.8,3.8c0,2.1,1.7,3.8,3.8,3.8s3.8-1.7,3.8-3.8
				C141.7,42.7,140,41,137.9,41z"/>
		</g>
		<g>
			<path class="st0" d="M117.8,79.5c-0.7,0-1.3-0.3-1.8-0.7l-12.5-12.5c-1-1-1-2.6,0-3.6l31.9-31.9c1-1,2.6-1,3.6,0l12.5,12.5
				c0.5,0.5,0.7,1.1,0.7,1.8s-0.3,1.3-0.7,1.8l-31.9,31.9C119.1,79.2,118.5,79.5,117.8,79.5z M137.3,31.8c-0.2,0-0.4,0.1-0.6,0.2
				l-31.9,31.9c-0.3,0.3-0.3,0.9,0,1.2l12.5,12.5c0.3,0.3,0.9,0.3,1.2,0l31.9-31.9c0.3-0.3,0.3-0.9,0-1.2L137.9,32
				C137.7,31.9,137.5,31.8,137.3,31.8z"/>
		</g>
		<g>
			<path class="st0" d="M112,80.1c-0.2,0-0.4-0.1-0.6-0.2l-8.9-8.9c-0.3-0.3-0.3-0.9,0-1.2l2.5-2.5c0.3-0.3,0.9-0.3,1.2,0
				c0.3,0.3,0.3,0.9,0,1.2l-1.9,1.9l7.7,7.7l1.9-1.9c0.3-0.3,0.9-0.3,1.2,0s0.3,0.9,0,1.2l-2.5,2.5C112.4,80,112.2,80.1,112,80.1z"
				/>
		</g>
		<g>
			<path class="st0" d="M149.1,43c-0.1,0-0.3,0-0.4-0.1c-0.4-0.2-0.5-0.8-0.3-1.2l3-5.1l-5.6-5.6l-5.1,3c-0.4,0.2-0.9,0.1-1.2-0.3
				c-0.2-0.4-0.1-0.9,0.3-1.2l5.7-3.3c0.3-0.2,0.8-0.1,1,0.1l6.5,6.5c0.3,0.3,0.3,0.7,0.1,1l-3.3,5.7C149.7,42.8,149.4,43,149.1,43z
				"/>
		</g>
		<g>
			<path class="st0" d="M147.2,75.2c-0.5,0-0.8-0.4-0.8-0.8V59.5l-4.5-4.1c-0.3-0.3-0.4-0.8-0.1-1.2c0.3-0.3,0.8-0.4,1.2-0.1
				l4.8,4.3c0.2,0.2,0.3,0.4,0.3,0.6v15.2C148,74.8,147.6,75.2,147.2,75.2z"/>
		</g>
		<g>
			<path class="st0" d="M111.7,103.9H90.6c-0.9,0-1.7-0.8-1.7-1.7v-3.4c0-0.9,0.8-1.7,1.7-1.7h41c3.5,0,6.3-2.8,6.3-6.3V68l-4.5-4.1
				c-0.3-0.3-0.4-0.8-0.1-1.2c0.3-0.3,0.8-0.4,1.2-0.1l4.8,4.3c0.2,0.2,0.3,0.4,0.3,0.6v23.3c0,4.4-3.6,8-8,8h-41v3.4h21.1
				c0.5,0,0.8,0.4,0.8,0.8S112.2,103.9,111.7,103.9z"/>
		</g>
		<g>
			<path class="st0" d="M135.2,109h-26.9c-0.2,0-0.4-0.1-0.6-0.2l-4.2-4.2c-0.3-0.3-0.3-0.9,0-1.2c0.3-0.3,0.9-0.3,1.2,0l4,4h26.5
				c6.1,0,11.1-5,11.1-11.1V79.4c0-0.5,0.4-0.8,0.8-0.8c0.5,0,0.8,0.4,0.8,0.8v16.8C148,103.2,142.3,109,135.2,109z"/>
		</g>
		<g>
			<path class="st0" d="M110,120.8c-0.5,0-0.8-0.4-0.8-0.8v-11.8c0-0.5,0.4-0.8,0.8-0.8c0.5,0,0.8,0.4,0.8,0.8V120
				C110.9,120.4,110.5,120.8,110,120.8z"/>
		</g>
		<g>
			<path class="st0" d="M128.6,120.8c-0.5,0-0.8-0.4-0.8-0.8v-11.8c0-0.5,0.4-0.8,0.8-0.8c0.5,0,0.8,0.4,0.8,0.8V120
				C129.4,120.4,129.1,120.8,128.6,120.8z"/>
		</g>
		<g>
			<path class="st0" d="M137,127.6c-0.5,0-0.8-0.4-0.8-0.8v-5.9h-35.5v5.9c0,0.5-0.4,0.8-0.8,0.8s-0.8-0.4-0.8-0.8V120
				c0-0.5,0.4-0.8,0.8-0.8H137c0.5,0,0.8,0.4,0.8,0.8v6.8C137.9,127.2,137.5,127.6,137,127.6z"/>
		</g>
		<g>
			<path class="st0" d="M148.9,134.3H88.1c-0.5,0-0.8-0.4-0.8-0.8c0-4.2,3.4-7.6,7.6-7.6h34.5c0.5,0,0.8,0.4,0.8,0.8
				c0,0.5-0.4,0.8-0.8,0.8H94.8c-3,0-5.4,2.2-5.9,5.1h59c-0.4-2.9-2.9-5.1-5.9-5.1h-7.5c-0.5,0-0.8-0.4-0.8-0.8
				c0-0.5,0.4-0.8,0.8-0.8h7.5c4.2,0,7.6,3.4,7.6,7.6C149.7,133.9,149.3,134.3,148.9,134.3z"/>
		</g>
	</g>
	<g>
		<g>
			<path class="st0" d="M81.2,129.3l-9.5-13.8c-0.4-0.5-0.6-1.2-0.6-1.8v-10.1c0-0.4-0.3-0.7-0.7-0.7c-0.4,0-0.7,0.3-0.7,0.7v10.1
				c0,0.9,0.3,1.8,0.8,2.6l9.5,13.8c0.4,0.6,0.4,1.3,0.1,1.9c-0.3,0.6-0.9,1-1.6,1H51.9c-0.7,0-1.3-0.4-1.6-1
				c-0.3-0.6-0.3-1.3,0.1-1.9l9.5-13.8c0.5-0.8,0.8-1.6,0.8-2.6V94.1h9.1v6.5c0,0.4,0.3,0.7,0.7,0.7c0.4,0,0.7-0.3,0.7-0.7V94
				c1-0.1,1.7-0.9,1.7-1.9v-0.1c0-1.1-0.9-1.9-1.9-1.9H59.7c-1.1,0-1.9,0.9-1.9,1.9v0.1c0,0.9,0.7,1.7,1.5,1.9v19.7
				c0,0.6-0.2,1.3-0.6,1.8l-9.5,13.8c-0.7,1-0.7,2.2-0.2,3.3c0.6,1,1.6,1.7,2.8,1.7h26.7c1.2,0,2.3-0.7,2.8-1.7
				C82,131.6,81.9,130.3,81.2,129.3L81.2,129.3z M59.1,92.1L59.1,92.1c0-0.4,0.3-0.6,0.6-0.6H71c0.3,0,0.6,0.3,0.6,0.6v0.1
				c0,0.3-0.3,0.6-0.6,0.6H59.7C59.4,92.7,59.1,92.4,59.1,92.1L59.1,92.1z"/>
		</g>
		<path class="st4" d="M53.1,129.4c-0.2,0.3-0.2,0.7-0.1,1.1c0.2,0.3,0.5,0.6,0.9,0.6h22.6c0.4,0,0.7-0.2,0.9-0.6
			c0.2-0.3,0.2-0.8-0.1-1.1l-5.6-8.1c-0.7-1-2-1.5-3.2-1.2c-0.4,0.1-0.8,0.1-1.1,0.1c-1.1,0-1.4-0.3-2.7-1.5
			c-0.1-0.1-0.2-0.2-0.3-0.3c-0.3-0.3-0.5-0.6-1-0.8c-1.5-0.7-2.3,0.2-2.6,0.6l-0.1,0.1l-2.1,3c-0.1,0.1-0.1,0.2-0.1,0.3
			s0.1,0.2,0.2,0.2c0.2,0.1,0.4,0.1,0.5-0.1l2.1-3c0.4-0.5,0.8-0.8,1.7-0.4c0.3,0.1,0.5,0.3,0.7,0.6c0.1,0.1,0.2,0.3,0.4,0.4
			c1.3,1.2,1.9,1.6,3.2,1.7c0.4,0,0.8,0,1.3-0.1c0.9-0.2,1.9,0.1,2.4,0.9l5.5,7.9c0.2,0.3,0,0.6-0.3,0.6H54.1
			c-0.3,0-0.5-0.3-0.3-0.6l4.1-5.9c0.1-0.1,0.1-0.2,0.1-0.3c0-0.1-0.1-0.2-0.2-0.2c-0.1,0-0.1-0.1-0.2-0.1c0,0,0,0-0.1,0
			c-0.1,0-0.2,0.1-0.2,0.2L53.1,129.4z"/>
		<path class="st4" d="M63,109H65c0.4,0,0.7-0.2,0.7-0.4c0-0.2-0.3-0.4-0.7-0.4H63c-0.4,0-0.7,0.2-0.7,0.4
			C62.4,108.8,62.7,109,63,109L63,109z"/>
		<path class="st4" d="M63,106H65c0.4,0,0.7-0.2,0.7-0.4s-0.3-0.4-0.7-0.4H63c-0.4,0-0.7,0.2-0.7,0.4C62.4,105.8,62.7,106,63,106
			L63,106z"/>
		<path class="st4" d="M63,102.9H65c0.4,0,0.7-0.2,0.7-0.4s-0.3-0.4-0.7-0.4H63c-0.4,0-0.7,0.2-0.7,0.4
			C62.4,102.7,62.7,102.9,63,102.9L63,102.9z"/>
		<path class="st4" d="M63,99.8H65c0.4,0,0.7-0.2,0.7-0.4c0-0.2-0.3-0.4-0.7-0.4H63c-0.4,0-0.7,0.2-0.7,0.4
			C62.4,99.7,62.7,99.8,63,99.8L63,99.8z"/>
	</g>
</g>
</svg>
