<?xml version="1.0" encoding="utf-8"?>
<!-- Generator: Adobe Illustrator 21.0.0, SVG Export Plug-In . SVG Version: 6.00 Build 0)  -->
<svg version="1.1" id="图层_1" xmlns="http://www.w3.org/2000/svg" xmlns:xlink="http://www.w3.org/1999/xlink" x="0px" y="0px"
	 viewBox="0 0 184 184" style="enable-background:new 0 0 184 184;" xml:space="preserve">
<style type="text/css">
	.st0{fill:#0F3264;}
	.st1{font-family:'PingFang-SC-Regular';}
	.st2{font-size:20px;}
	.st3{fill:#3CA5C3;}
</style>
<text transform="matrix(1 0 0 1 62.5416 170.3877)" class="st0 st1 st2">新金融</text>
<g>
	<path class="st3" d="M182,2v180H2V2H182 M184,0H0v184h184V0L184,0z"/>
</g>
<g>
	<g>
		<g>
			<path class="st3" d="M41.9,86.7c-0.2,0-0.4-0.2-0.4-0.4v-2.6c0-0.2,0.2-0.4,0.4-0.4c0.2,0,0.4,0.2,0.4,0.4v2.6
				C42.3,86.5,42.1,86.7,41.9,86.7z"/>
		</g>
		<g>
			<path class="st3" d="M41.9,127.7c-0.2,0-0.4-0.2-0.4-0.4v-4.9c0-0.2,0.2-0.4,0.4-0.4c0.2,0,0.4,0.2,0.4,0.4v4.9
				C42.3,127.5,42.1,127.7,41.9,127.7z M41.9,119.5c-0.2,0-0.4-0.2-0.4-0.4v-4.9c0-0.2,0.2-0.4,0.4-0.4c0.2,0,0.4,0.2,0.4,0.4v4.9
				C42.3,119.3,42.1,119.5,41.9,119.5z M41.9,111.3c-0.2,0-0.4-0.2-0.4-0.4V106c0-0.2,0.2-0.4,0.4-0.4c0.2,0,0.4,0.2,0.4,0.4v4.9
				C42.3,111.1,42.1,111.3,41.9,111.3z M41.9,103.1c-0.2,0-0.4-0.2-0.4-0.4v-4.9c0-0.2,0.2-0.4,0.4-0.4c0.2,0,0.4,0.2,0.4,0.4v4.9
				C42.3,102.9,42.1,103.1,41.9,103.1z M41.9,94.9c-0.2,0-0.4-0.2-0.4-0.4v-4.9c0-0.2,0.2-0.4,0.4-0.4c0.2,0,0.4,0.2,0.4,0.4v4.9
				C42.3,94.7,42.1,94.9,41.9,94.9z"/>
		</g>
		<g>
			<path class="st3" d="M41.9,133.6c-0.2,0-0.4-0.2-0.4-0.4v-2.6c0-0.2,0.2-0.4,0.4-0.4c0.2,0,0.4,0.2,0.4,0.4v2.6
				C42.3,133.4,42.1,133.6,41.9,133.6z"/>
		</g>
	</g>
	<path class="st0" d="M144.9,49.7v-2.3l-15,63.3l-19.1-10.3l-15.2,13.8l-19.3-28l-14,33.3l-20.4-7.2l-0.3,0.8l21.2,7.5L76.5,88
		l18.9,27.5l15.5-14l19.6,10.5l14.7-62C145.1,50,144.9,49.9,144.9,49.7z"/>
	<path class="st3" d="M145.4,41.6c0.2,0,0.4-0.2,0.4-0.4v-2.6c0-0.2-0.2-0.4-0.4-0.4s-0.4,0.2-0.4,0.4v2.6
		C144.9,41.4,145.1,41.6,145.4,41.6z"/>
	<path class="st3" d="M145.4,104.3c-0.2,0-0.4,0.2-0.4,0.4v5.2c0,0.2,0.2,0.4,0.4,0.4s0.4-0.2,0.4-0.4v-5.2
		C145.8,104.5,145.6,104.3,145.4,104.3z"/>
	<path class="st3" d="M145.4,95.7c-0.2,0-0.4,0.2-0.4,0.4v5.2c0,0.2,0.2,0.4,0.4,0.4s0.4-0.2,0.4-0.4v-5.2
		C145.8,95.9,145.6,95.7,145.4,95.7z"/>
	<path class="st3" d="M145.4,121.5c-0.2,0-0.4,0.2-0.4,0.4v5.2c0,0.2,0.2,0.4,0.4,0.4s0.4-0.2,0.4-0.4V122
		C145.8,121.7,145.6,121.5,145.4,121.5z"/>
	<path class="st3" d="M145.4,87.1c-0.2,0-0.4,0.2-0.4,0.4v5.2c0,0.2,0.2,0.4,0.4,0.4s0.4-0.2,0.4-0.4v-5.2
		C145.8,87.3,145.6,87.1,145.4,87.1z"/>
	<path class="st3" d="M145.4,112.9c-0.2,0-0.4,0.2-0.4,0.4v5.2c0,0.2,0.2,0.4,0.4,0.4s0.4-0.2,0.4-0.4v-5.2
		C145.8,113.1,145.6,112.9,145.4,112.9z"/>
	<path class="st3" d="M145.8,45.5v-0.9c0-0.2-0.2-0.4-0.4-0.4s-0.4,0.2-0.4,0.4v2.9l0.5-2.1L145.8,45.5z"/>
	<path class="st3" d="M145.4,52.7c-0.2,0-0.4,0.2-0.4,0.4v5.2c0,0.2,0.2,0.4,0.4,0.4s0.4-0.2,0.4-0.4v-5.2
		C145.8,52.9,145.6,52.7,145.4,52.7z"/>
	<path class="st3" d="M145.2,50.1c0.1,0,0.1,0.1,0.2,0.1c0.2,0,0.4-0.2,0.4-0.4v-2.2L145.2,50.1z"/>
	<path class="st3" d="M145.4,78.5c-0.2,0-0.4,0.2-0.4,0.4v5.2c0,0.2,0.2,0.4,0.4,0.4s0.4-0.2,0.4-0.4V79
		C145.8,78.7,145.6,78.5,145.4,78.5z"/>
	<path class="st3" d="M145.4,69.9c-0.2,0-0.4,0.2-0.4,0.4v5.2c0,0.2,0.2,0.4,0.4,0.4s0.4-0.2,0.4-0.4v-5.2
		C145.8,70.1,145.6,69.9,145.4,69.9z"/>
	<path class="st3" d="M145.4,61.3c-0.2,0-0.4,0.2-0.4,0.4v5.2c0,0.2,0.2,0.4,0.4,0.4s0.4-0.2,0.4-0.4v-5.2
		C145.8,61.5,145.6,61.3,145.4,61.3z"/>
	<path class="st3" d="M145.8,45.5l-0.4-0.1l-0.5,2.1v2.3c0,0.2,0.1,0.3,0.3,0.4l0.6-2.5V45.5z"/>
	<path class="st3" d="M145.4,130.1c-0.2,0-0.4,0.2-0.4,0.4v2.6c0,0.2,0.2,0.4,0.4,0.4s0.4-0.2,0.4-0.4v-2.6
		C145.8,130.3,145.6,130.1,145.4,130.1z"/>
	<g>
		<g>
			<path class="st3" d="M110.9,76.3c-0.2,0-0.4-0.2-0.4-0.4v-2.6c0-0.2,0.2-0.4,0.4-0.4c0.2,0,0.4,0.2,0.4,0.4v2.6
				C111.3,76.1,111.1,76.3,110.9,76.3z"/>
		</g>
		<g>
			<path class="st3" d="M110.9,127.6c-0.2,0-0.4-0.2-0.4-0.4V122c0-0.2,0.2-0.4,0.4-0.4c0.2,0,0.4,0.2,0.4,0.4v5.1
				C111.3,127.4,111.1,127.6,110.9,127.6z M110.9,119c-0.2,0-0.4-0.2-0.4-0.4v-5.1c0-0.2,0.2-0.4,0.4-0.4c0.2,0,0.4,0.2,0.4,0.4v5.1
				C111.3,118.8,111.1,119,110.9,119z M110.9,110.5c-0.2,0-0.4-0.2-0.4-0.4v-5.1c0-0.2,0.2-0.4,0.4-0.4c0.2,0,0.4,0.2,0.4,0.4v5.1
				C111.3,110.3,111.1,110.5,110.9,110.5z M110.9,101.9c-0.2,0-0.4-0.2-0.4-0.4v-5.1c0-0.2,0.2-0.4,0.4-0.4c0.2,0,0.4,0.2,0.4,0.4
				v5.1C111.3,101.7,111.1,101.9,110.9,101.9z M110.9,93.4c-0.2,0-0.4-0.2-0.4-0.4v-5.1c0-0.2,0.2-0.4,0.4-0.4
				c0.2,0,0.4,0.2,0.4,0.4V93C111.3,93.2,111.1,93.4,110.9,93.4z M110.9,84.8c-0.2,0-0.4-0.2-0.4-0.4v-5.1c0-0.2,0.2-0.4,0.4-0.4
				c0.2,0,0.4,0.2,0.4,0.4v5.1C111.3,84.6,111.1,84.8,110.9,84.8z"/>
		</g>
		<g>
			<path class="st3" d="M110.9,133.6c-0.2,0-0.4-0.2-0.4-0.4v-2.6c0-0.2,0.2-0.4,0.4-0.4c0.2,0,0.4,0.2,0.4,0.4v2.6
				C111.3,133.4,111.1,133.6,110.9,133.6z"/>
		</g>
	</g>
	<g>
		<g>
			<path class="st3" d="M76.4,65c-0.2,0-0.4-0.2-0.4-0.4V62c0-0.2,0.2-0.4,0.4-0.4s0.4,0.2,0.4,0.4v2.6C76.8,64.8,76.6,65,76.4,65z"
				/>
		</g>
		<g>
			<path class="st3" d="M76.4,127.4c-0.2,0-0.4-0.2-0.4-0.4v-5.3c0-0.2,0.2-0.4,0.4-0.4s0.4,0.2,0.4,0.4v5.3
				C76.8,127.2,76.6,127.4,76.4,127.4z M76.4,118.5c-0.2,0-0.4-0.2-0.4-0.4v-5.3c0-0.2,0.2-0.4,0.4-0.4s0.4,0.2,0.4,0.4v5.3
				C76.8,118.3,76.6,118.5,76.4,118.5z M76.4,109.6c-0.2,0-0.4-0.2-0.4-0.4v-5.3c0-0.2,0.2-0.4,0.4-0.4s0.4,0.2,0.4,0.4v5.3
				C76.8,109.4,76.6,109.6,76.4,109.6z M76.4,100.7c-0.2,0-0.4-0.2-0.4-0.4v-5.3c0-0.2,0.2-0.4,0.4-0.4s0.4,0.2,0.4,0.4v5.3
				C76.8,100.5,76.6,100.7,76.4,100.7z M76.4,91.8c-0.2,0-0.4-0.2-0.4-0.4V86c0-0.2,0.2-0.4,0.4-0.4s0.4,0.2,0.4,0.4v5.3
				C76.8,91.6,76.6,91.8,76.4,91.8z M76.4,82.8c-0.2,0-0.4-0.2-0.4-0.4v-5.3c0-0.2,0.2-0.4,0.4-0.4s0.4,0.2,0.4,0.4v5.3
				C76.8,82.7,76.6,82.8,76.4,82.8z M76.4,73.9c-0.2,0-0.4-0.2-0.4-0.4v-5.3c0-0.2,0.2-0.4,0.4-0.4s0.4,0.2,0.4,0.4v5.3
				C76.8,73.7,76.6,73.9,76.4,73.9z"/>
		</g>
		<g>
			<path class="st3" d="M76.4,133.6c-0.2,0-0.4-0.2-0.4-0.4v-2.6c0-0.2,0.2-0.4,0.4-0.4s0.4,0.2,0.4,0.4v2.6
				C76.8,133.4,76.6,133.6,76.4,133.6z"/>
		</g>
	</g>
	<g>
		<path class="st0" d="M49.5,138.4H33.9c-0.5,0-0.9-0.4-0.9-0.9c0-0.5,0.4-0.9,0.9-0.9h15.6c0.5,0,0.9,0.4,0.9,0.9
			C50.4,138,50,138.4,49.5,138.4z"/>
	</g>
	<g>
		<path class="st0" d="M99.8,138.4H54.7c-0.5,0-0.9-0.4-0.9-0.9c0-0.5,0.4-0.9,0.9-0.9h45.1c0.5,0,0.9,0.4,0.9,0.9
			C100.7,138,100.3,138.4,99.8,138.4z"/>
	</g>
	<g>
		<path class="st0" d="M117.2,138.4H105c-0.5,0-0.9-0.4-0.9-0.9c0-0.5,0.4-0.9,0.9-0.9h12.2c0.5,0,0.9,0.4,0.9,0.9
			C118.1,138,117.7,138.4,117.2,138.4z"/>
	</g>
	<g>
		<path class="st0" d="M157.1,138.4h-34.7c-0.5,0-0.9-0.4-0.9-0.9c0-0.5,0.4-0.9,0.9-0.9h34.7c0.5,0,0.9,0.4,0.9,0.9
			C158,138,157.6,138.4,157.1,138.4z"/>
	</g>
	<path class="st0" d="M69.9,53.7c0-3.6,2.9-6.5,6.5-6.5s6.5,2.9,6.5,6.5c0,0.6-0.1,1.2-0.3,1.7l1.6,0.6c0.2-0.7,0.4-1.5,0.4-2.3
		c0-4.5-3.7-8.2-8.2-8.2s-8.2,3.7-8.2,8.2c0,1.5,0.4,2.8,1.1,4l1.5-0.9C70.2,55.9,69.9,54.9,69.9,53.7z"/>
	<path class="st0" d="M76.4,60.2c-1.8,0-3.5-0.8-4.7-2l-1.5,0.9c1.5,1.7,3.7,2.8,6.1,2.8c3.1,0,5.8-1.8,7.2-4.4L82,57
		C80.8,58.9,78.8,60.2,76.4,60.2z"/>
	<path class="st0" d="M117.4,65.9c0,3.6-2.9,6.5-6.5,6.5c-3.6,0-6.5-2.9-6.5-6.5c0-0.3,0-0.7,0.1-1l-1.7-0.6c-0.1,0.5-0.2,1-0.2,1.6
		c0,4.5,3.7,8.2,8.2,8.2c4.5,0,8.2-3.7,8.2-8.2c0-1.8-0.6-3.4-1.6-4.8l-1.2,1.2C117,63.4,117.4,64.6,117.4,65.9z"/>
	<path class="st0" d="M110.9,59.4c1.7,0,3.2,0.6,4.3,1.7l1.2-1.2c-1.5-1.3-3.4-2.2-5.5-2.2c-3.4,0-6.3,2.1-7.6,5l1.7,0.6
		C106,61,108.2,59.4,110.9,59.4z"/>
	<path class="st0" d="M139.4,36.8l-23,23c0.4,0.4,0.8,0.8,1.2,1.3L140.7,38C140.2,37.6,139.8,37.2,139.4,36.8z"/>
	<path class="st0" d="M48.4,71.3c0.4,0.5,0.7,1,0.9,1.5l20.9-13.6c-0.4-0.4-0.7-0.9-1-1.4L48.4,71.3z"/>
	<path class="st0" d="M84.3,56c-0.2,0.6-0.4,1.1-0.7,1.6l19.2,6.7c0.1-0.6,0.3-1.1,0.5-1.7L84.3,56z"/>
	<path class="st0" d="M49.3,72.8c-0.3-0.5-0.6-1-0.9-1.5c-1.5-2-3.9-3.3-6.5-3.3c-4.5,0-8.2,3.7-8.2,8.2s3.7,8.2,8.2,8.2
		s8.2-3.7,8.2-8.2C50.1,75,49.8,73.9,49.3,72.8z M41.9,82.8c-3.6,0-6.5-2.9-6.5-6.5c0-3.6,2.9-6.5,6.5-6.5c2.1,0,3.9,1,5.1,2.5
		c0.4,0.5,0.7,0.9,0.9,1.5c0.3,0.8,0.5,1.7,0.5,2.6C48.4,79.9,45.5,82.8,41.9,82.8z"/>
	<path class="st0" d="M82.6,55.4C82.5,56,82.3,56.5,82,57l1.7,0.6c0.3-0.5,0.5-1,0.7-1.6L82.6,55.4z"/>
	<path class="st0" d="M70.7,56.8l-1.5,0.9c0.3,0.5,0.6,1,1,1.4l1.5-0.9C71.3,57.8,71,57.3,70.7,56.8z"/>
	<path class="st0" d="M104.9,63.2l-1.7-0.6c-0.2,0.5-0.4,1.1-0.5,1.7l1.7,0.6C104.6,64.3,104.7,63.8,104.9,63.2z"/>
	<path class="st0" d="M116.4,59.8l-1.2,1.2c0.4,0.4,0.8,0.8,1.1,1.3l1.2-1.2C117.2,60.6,116.8,60.2,116.4,59.8z"/>
	<path class="st0" d="M145.4,22.9c-4.5,0-8.2,3.7-8.2,8.2c0,2.2,0.9,4.2,2.3,5.7c0.4,0.4,0.8,0.8,1.3,1.1c1.3,0.9,2.9,1.5,4.7,1.5
		c4.5,0,8.2-3.7,8.2-8.2S149.9,22.9,145.4,22.9z M145.4,37.7c-1.2,0-2.4-0.4-3.4-1c-0.5-0.3-1-0.7-1.4-1.1c-1.1-1.2-1.8-2.7-1.8-4.4
		c0-3.6,2.9-6.5,6.5-6.5s6.5,2.9,6.5,6.5S149,37.7,145.4,37.7z"/>
	<path class="st3" d="M41.9,77.6c-0.7,0-1.3-0.6-1.3-1.3c0-0.7,0.6-1.3,1.3-1.3c0.4,0,0.8,0.2,1,0.5c0.1,0.1,0.1,0.2,0.2,0.3
		c0.1,0.2,0.1,0.3,0.1,0.5C43.2,77,42.6,77.6,41.9,77.6z"/>
	<path class="st3" d="M76.4,55.1c-0.7,0-1.3-0.6-1.3-1.3c0-0.7,0.6-1.3,1.3-1.3c0.4,0,0.8,0.2,1,0.5c0.1,0.1,0.1,0.2,0.2,0.3
		c0.1,0.2,0.1,0.3,0.1,0.5C77.7,54.5,77.1,55.1,76.4,55.1z"/>
	<path class="st3" d="M110.9,67.2c-0.7,0-1.3-0.6-1.3-1.3s0.6-1.3,1.3-1.3c0.4,0,0.8,0.2,1,0.5c0.1,0.1,0.1,0.2,0.2,0.3
		c0.1,0.2,0.1,0.3,0.1,0.5C112.2,66.6,111.6,67.2,110.9,67.2z"/>
	<path class="st3" d="M145.4,32.5c-0.3,0-0.5-0.1-0.7-0.2c-0.1-0.1-0.2-0.1-0.3-0.2c-0.2-0.2-0.4-0.6-0.4-0.9c0-0.7,0.6-1.3,1.3-1.3
		s1.3,0.6,1.3,1.3S146.1,32.5,145.4,32.5z"/>
</g>
</svg>
