<?xml version="1.0" encoding="utf-8"?>
<!-- Generator: Adobe Illustrator 21.0.0, SVG Export Plug-In . SVG Version: 6.00 Build 0)  -->
<svg version="1.1" id="图层_1" xmlns="http://www.w3.org/2000/svg" xmlns:xlink="http://www.w3.org/1999/xlink" x="0px" y="0px"
	 viewBox="0 0 184 184" style="enable-background:new 0 0 184 184;" xml:space="preserve">
<style type="text/css">
	.st0{fill:#0F3264;}
	.st1{font-family:'PingFang-SC-Regular';}
	.st2{font-size:20px;}
	.st3{fill:#3CA5C3;}
</style>
<text transform="matrix(1 0 0 1 62.5416 170.3877)" class="st0 st1 st2">新零售</text>
<g>
	<path class="st3" d="M182,2v180H2V2H182 M184,0H0v184h184V0L184,0z"/>
</g>
<g>
	<g>
		<g>
			<path class="st0" d="M49.9,138.4H34.2c-0.5,0-0.9-0.4-0.9-0.9c0-0.5,0.4-0.9,0.9-0.9h15.6c0.5,0,0.9,0.4,0.9,0.9
				C50.7,138,50.3,138.4,49.9,138.4z"/>
		</g>
		<g>
			<path class="st0" d="M98.5,138.4H55.1c-0.5,0-0.9-0.4-0.9-0.9c0-0.5,0.4-0.9,0.9-0.9h43.4c0.5,0,0.9,0.4,0.9,0.9
				C99.3,138,99,138.4,98.5,138.4z"/>
		</g>
		<g>
			<path class="st0" d="M108.9,138.4h-5.2c-0.5,0-0.9-0.4-0.9-0.9c0-0.5,0.4-0.9,0.9-0.9h5.2c0.5,0,0.9,0.4,0.9,0.9
				C109.8,138,109.4,138.4,108.9,138.4z"/>
		</g>
		<g>
			<path class="st0" d="M157.5,138.4h-43.4c-0.5,0-0.9-0.4-0.9-0.9c0-0.5,0.4-0.9,0.9-0.9h43.4c0.5,0,0.9,0.4,0.9,0.9
				C158.4,138,158,138.4,157.5,138.4z"/>
		</g>
	</g>
	<g>
		<g>
			<rect x="106" y="34.6" class="st3" width="31.1" height="1"/>
		</g>
		<g>
			<rect x="106" y="69.8" class="st3" width="31.1" height="1"/>
		</g>
		<g>
			<path class="st0" d="M126.6,115.5H79.9L59.4,36.3H44.9c-0.6,0-1-0.4-1-1s0.4-1,1-1H61l20.4,79.2h45.2c0.6,0,1,0.4,1,1
				S127.2,115.5,126.6,115.5z"/>
		</g>
		<g>
			<path class="st0" d="M82.6,115.2c4.9,0,8.9,4,8.9,8.9c0,4.9-4,8.9-8.9,8.9s-8.9-4-8.9-8.9C73.7,119.2,77.7,115.2,82.6,115.2
				 M82.6,113.2c-6,0-10.9,4.9-10.9,10.9c0,6,4.9,10.9,10.9,10.9c6,0,10.9-4.9,10.9-10.9C93.4,118,88.5,113.2,82.6,113.2L82.6,113.2
				z"/>
		</g>
		<g>
			<path class="st0" d="M128.5,115.2c4.9,0,8.9,4,8.9,8.9c0,4.9-4,8.9-8.9,8.9c-4.9,0-8.9-4-8.9-8.9
				C119.7,119.2,123.6,115.2,128.5,115.2 M128.5,113.2c-6,0-10.9,4.9-10.9,10.9c0,6,4.9,10.9,10.9,10.9c6,0,10.9-4.9,10.9-10.9
				C139.4,118,134.5,113.2,128.5,113.2L128.5,113.2z"/>
		</g>
		<g>
			<path class="st3" d="M82.6,119.3c2.6,0,4.8,2.1,4.8,4.8s-2.1,4.8-4.8,4.8s-4.8-2.1-4.8-4.8S79.9,119.3,82.6,119.3 M82.6,118.3
				c-3.2,0-5.7,2.6-5.7,5.7c0,3.2,2.6,5.7,5.7,5.7s5.7-2.6,5.7-5.7C88.3,120.9,85.7,118.3,82.6,118.3L82.6,118.3z"/>
		</g>
		<g>
			<path class="st3" d="M128.5,119.3c2.6,0,4.8,2.1,4.8,4.8s-2.1,4.8-4.8,4.8c-2.6,0-4.8-2.1-4.8-4.8S125.9,119.3,128.5,119.3
				 M128.5,118.3c-3.2,0-5.7,2.6-5.7,5.7c0,3.2,2.6,5.7,5.7,5.7s5.7-2.6,5.7-5.7C134.3,120.9,131.7,118.3,128.5,118.3L128.5,118.3z"
				/>
		</g>
		<path class="st0" d="M71.7,61.1c-0.5,0-1,0.4-1,1s0.4,1,1,1h31.4v-2H71.7z"/>
		<path class="st0" d="M151.7,61.5c-0.2-0.3-0.5-0.4-0.8-0.4h-9.4v2h8.1l-12.2,41.4h-59c-0.6,0-1,0.4-1,1s0.4,1,1,1h59.8
			c0.4,0,0.8-0.3,1-0.7l12.8-43.4C151.9,62.1,151.9,61.8,151.7,61.5z"/>
		<path class="st0" d="M133.1,25.5h-23c-2.5,0-4.6,2.1-4.6,4.6v31v2v14.7c0,2.5,2.1,4.6,4.6,4.6h23c2.5,0,4.6-2.1,4.6-4.6V63.1v-2
			v-31C137.7,27.6,135.6,25.5,133.1,25.5z M135.7,63.1v14.7c0,1.4-1.2,2.6-2.6,2.6h-23c-1.4,0-2.6-1.2-2.6-2.6V63.1v-2v-31
			c0-1.4,1.2-2.6,2.6-2.6h23c1.4,0,2.6,1.2,2.6,2.6v31V63.1z"/>
		<g>
			<g>
				<path class="st3" d="M122.9,31.1h-4.7c-0.3,0-0.5-0.2-0.5-0.5s0.2-0.5,0.5-0.5h4.7c0.3,0,0.5,0.2,0.5,0.5S123.2,31.1,122.9,31.1
					z"/>
			</g>
			<g>
				<path class="st3" d="M124.9,31.1h-0.7c-0.3,0-0.5-0.2-0.5-0.5s0.2-0.5,0.5-0.5h0.7c0.3,0,0.5,0.2,0.5,0.5S125.2,31.1,124.9,31.1
					z"/>
			</g>
		</g>
		<g>
			<path class="st3" d="M121.6,78.9c-2,0-3.6-1.6-3.6-3.6s1.6-3.6,3.6-3.6s3.6,1.6,3.6,3.6S123.6,78.9,121.6,78.9z M121.6,72.6
				c-1.5,0-2.7,1.2-2.7,2.7s1.2,2.7,2.7,2.7s2.7-1.2,2.7-2.7S123,72.6,121.6,72.6z"/>
		</g>
		<g>
			<path class="st0" d="M37.9,85.6l0.8-0.8l-0.5-0.8c-0.7-1-0.6-1.1,0.3-1.8l9.1-6.2l4.5-4.4c-0.1,0-0.1,0-0.2,0.1l-14,9.6
				c-1.5,1-1.7,1.8-0.6,3.3L37.9,85.6z"/>
			<path class="st0" d="M36.1,82.5l0.9-0.6l-0.4-0.8c-0.5-1.1-0.4-1.1,0.6-1.6l9.7-4.3l5-3.4c-0.1,0-0.1,0-0.2,0.1l-15,6.7
				c-1.6,0.7-1.9,1.4-1.2,3L36.1,82.5z"/>
			<path class="st0" d="M63.3,83c0,0.9,0.8,1.7,1.7,1.7c0.9,0,1.7-0.8,1.7-1.7c0-0.9-0.8-1.7-1.7-1.7C64.1,81.3,63.3,82.1,63.3,83
				L63.3,83z"/>
			<path class="st0" d="M65.4,74.3c0,0.4,0.2,0.7,0.5,0.9c0.3,0.2,0.7,0.2,1,0c0.3-0.2,0.5-0.5,0.5-0.9c0-0.4-0.2-0.7-0.5-0.9
				c-0.3-0.2-0.7-0.2-1,0C65.6,73.5,65.4,73.9,65.4,74.3L65.4,74.3z"/>
			<path class="st0" d="M40.6,68.2c0,0.4,0.2,0.7,0.5,0.9c0.3,0.2,0.7,0.2,1,0c0.3-0.2,0.5-0.5,0.5-0.9c0-0.4-0.2-0.7-0.5-0.9
				c-0.3-0.2-0.7-0.2-1,0C40.8,67.5,40.6,67.8,40.6,68.2L40.6,68.2z"/>
			<path class="st0" d="M36.6,89.9c0,0.6,0.3,1.1,0.8,1.3c0.5,0.3,1.1,0.3,1.5,0c0.5-0.3,0.8-0.8,0.8-1.3c0-0.9-0.7-1.5-1.5-1.5
				C37.3,88.3,36.6,89,36.6,89.9L36.6,89.9z"/>
			<path class="st0" d="M45.7,81.3c-0.1-0.1-0.3-0.1-0.4,0l-0.2,0.2c-0.1,0.1-0.1,0.3,0,0.4c0.1,0.1,0.1,0.1,0.2,0.1
				c0.1,0,0.2,0,0.2-0.1l0.2-0.2C45.8,81.6,45.8,81.4,45.7,81.3L45.7,81.3z M58,76.9c0-1.3-1-2.4-2.3-2.4c-1.3,0-2.4,1.1-2.4,2.4
				s1,2.4,2.3,2.4C56.9,79.3,58,78.3,58,76.9L58,76.9z M54.4,76.9c0-0.7,0.6-1.2,1.2-1.2c0.7,0,1.2,0.6,1.2,1.2s-0.6,1.2-1.2,1.2
				C54.9,78.1,54.4,77.6,54.4,76.9L54.4,76.9z"/>
			<path class="st3" d="M45.7,81.3c-0.1-0.1-0.3-0.1-0.4,0l-0.2,0.2c-0.1,0.1-0.1,0.3,0,0.4c0.1,0.1,0.1,0.1,0.2,0.1
				c0.1,0,0.2,0,0.2-0.1l0.2-0.2C45.8,81.6,45.8,81.4,45.7,81.3L45.7,81.3z M44.5,82.1l-2.6,2.6c-0.7,0.6-0.9,1.1-0.1,1.9
				c0.1,0.1,0.1,0.1,0.2,0.1c0.1,0,0.2,0,0.2-0.1c0.1-0.1,0.1-0.3,0-0.4c-0.4-0.5-0.4-0.5,0.1-1.1l2.6-2.6c0.1-0.1,0.1-0.3,0-0.4
				C44.8,82,44.6,82,44.5,82.1L44.5,82.1z"/>
			<path class="st0" d="M52.2,71.7C52.2,71.7,52.2,71.7,52.2,71.7l1.8,0.2L52.2,71.7z"/>
			<path class="st0" d="M60.8,80.4l-0.1-1.5L60.8,80.4C60.8,80.4,60.8,80.4,60.8,80.4z"/>
			<path class="st0" d="M59.7,72.5c0.1,0,0.2,0.1,0.3,0.2c-0.1-0.1-0.2-0.2-0.4-0.2L54,71.9L59.7,72.5L59.7,72.5z"/>
			<path class="st0" d="M60.6,78.9L60.1,73l0-0.1c0-0.1-0.1-0.2-0.2-0.3c-0.1-0.1-0.2-0.1-0.3-0.2h-0.1L54,71.9l-1.9-0.2
				c-0.2,0-0.3,0.1-0.4,0.1l-5.9,5.9l-6.3,6.3c-1,1-1.2,1.7-0.8,2.5c0.2,0.3,0.4,0.6,0.7,1l2.7,2.8l2.6,2.6c0.3,0.3,0.7,0.6,0.9,0.8
				c0.8,0.5,1.5,0.2,2.5-0.7l6.4-6.2l6-5.8c0.1-0.1,0.2-0.3,0.2-0.4L60.6,78.9z M47.4,92.1c-0.9,0.8-0.9,0.8-1.8,0L43,89.5l-2.7-2.8
				c-0.9-0.9-0.9-1,0-1.8l12.1-12l6.6,0.7l0.6,6.7L47.4,92.1z"/>
		</g>
		<circle class="st0" cx="102.1" cy="62.1" r="1"/>
	</g>
</g>
</svg>
