<?xml version="1.0" encoding="utf-8"?>
<!-- Generator: Adobe Illustrator 21.0.0, SVG Export Plug-In . SVG Version: 6.00 Build 0)  -->
<svg version="1.1" id="图层_1" xmlns="http://www.w3.org/2000/svg" xmlns:xlink="http://www.w3.org/1999/xlink" x="0px" y="0px"
	 viewBox="0 0 184 184" style="enable-background:new 0 0 184 184;" xml:space="preserve">
<style type="text/css">
	.st0{fill:#0F3264;}
	.st1{fill:#3CA5C3;}
	.st2{font-family:'PingFang-SC-Regular';}
	.st3{font-size:20px;}
</style>
<g>
	<g>
		<path class="st0" d="M70.2,137.6c-0.5,0-0.8-0.4-0.8-0.8V76.2H47.4v17.7c0,0.5-0.4,0.8-0.8,0.8c-0.5,0-0.8-0.4-0.8-0.8V75.4
			c0-0.5,0.4-0.8,0.8-0.8h23.5c0.5,0,0.8,0.4,0.8,0.8v61.4C71,137.2,70.6,137.6,70.2,137.6z"/>
	</g>
	<g>
		<g>
			<path class="st0" d="M125.8,138.5c-0.5,0-0.8-0.4-0.8-0.8V36.7h-8.8c-0.5,0-0.8-0.4-0.8-0.8v-7.6h-8.8c-0.5,0-0.8-0.4-0.8-0.8
				v-4.2h-5.1v4.2c0,0.5-0.4,0.8-0.8,0.8h-8.8v7.6c0,0.5-0.4,0.8-0.8,0.8c-0.5,0-0.8-0.4-0.8-0.8v-8.4c0-0.5,0.4-0.8,0.8-0.8h8.8
				v-4.2c0-0.5,0.4-0.8,0.8-0.8h6.8c0.5,0,0.8,0.4,0.8,0.8v4.2h8.8c0.5,0,0.8,0.4,0.8,0.8V35h8.8c0.5,0,0.8,0.4,0.8,0.8v101.8
				C126.6,138.1,126.2,138.5,125.8,138.5z"/>
		</g>
		<g>
			<path class="st0" d="M80.2,138.5c-0.5,0-0.8-0.4-0.8-0.8V35.8c0-0.5,0.4-0.8,0.8-0.8h32.3c0.5,0,0.8,0.4,0.8,0.8
				s-0.4,0.8-0.8,0.8H81.1v100.9C81.1,138.1,80.7,138.5,80.2,138.5z"/>
		</g>
	</g>
	<g>
		<path class="st1" d="M118.4,138c-0.2,0-0.4-0.2-0.4-0.4V44.7H88v92.1c0,0.2-0.2,0.4-0.4,0.4c-0.2,0-0.4-0.2-0.4-0.4V44.3
			c0-0.2,0.2-0.4,0.4-0.4h30.8c0.2,0,0.4,0.2,0.4,0.4v93.4C118.8,137.8,118.7,138,118.4,138z"/>
	</g>
	<g>
		<path class="st1" d="M109.6,59.8H96.4c-0.2,0-0.4-0.2-0.4-0.4c0-0.2,0.2-0.4,0.4-0.4h13.1c0.2,0,0.4,0.2,0.4,0.4
			C110,59.6,109.8,59.8,109.6,59.8z"/>
	</g>
	<g>
		<path class="st1" d="M109.6,75H96.4c-0.2,0-0.4-0.2-0.4-0.4c0-0.2,0.2-0.4,0.4-0.4h13.1c0.2,0,0.4,0.2,0.4,0.4
			C110,74.8,109.8,75,109.6,75z"/>
	</g>
	<g>
		<path class="st1" d="M109.6,90.1H96.4c-0.2,0-0.4-0.2-0.4-0.4c0-0.2,0.2-0.4,0.4-0.4h13.1c0.2,0,0.4,0.2,0.4,0.4
			C110,89.9,109.8,90.1,109.6,90.1z"/>
	</g>
	<g>
		<path class="st1" d="M109.6,105.2H96.4c-0.2,0-0.4-0.2-0.4-0.4c0-0.2,0.2-0.4,0.4-0.4h13.1c0.2,0,0.4,0.2,0.4,0.4
			C110,105,109.8,105.2,109.6,105.2z"/>
	</g>
	<g>
		<path class="st1" d="M109.6,120.4H96.4c-0.2,0-0.4-0.2-0.4-0.4s0.2-0.4,0.4-0.4h13.1c0.2,0,0.4,0.2,0.4,0.4
			S109.8,120.4,109.6,120.4z"/>
	</g>
	<g>
		<path class="st0" d="M60.9,73.7c-0.5,0-0.8-0.4-0.8-0.8v-21c0-0.5,0.4-0.8,0.8-0.8h19.3c0.5,0,0.8,0.4,0.8,0.8
			c0,0.5-0.4,0.8-0.8,0.8H61.7v20.2C61.7,73.3,61.4,73.7,60.9,73.7z"/>
	</g>
	<path class="st1" d="M40.4,111.7c-0.6,2.8,1,5.7,3.7,6.8c2.7,1.1,5.8,0.2,7.4-2.3c1.6-2.4,1.3-5.6-0.8-7.7
		c-1.1-1.1-2.7-1.8-4.3-1.8c0,0,0,0,0,0h0C43.5,106.8,41,108.9,40.4,111.7z M46.4,107.7C46.4,107.7,46.4,107.7,46.4,107.7
		L46.4,107.7c2.5,0,4.6,1.7,5.1,4.2c0.5,2.4-0.8,4.8-3.1,5.8c-0.6,0.3-1.3,0.4-2,0.4c-1.7,0-3.3-0.8-4.3-2.3c-1.4-2-1.1-4.8,0.6-6.5
		C43.7,108.3,45,107.7,46.4,107.7z"/>
	<path class="st0" d="M46.4,96.1c-4.3,0-8.5,1.8-11.5,4.9c-6.4,6.6-6.4,17,0,23.6l11.5,11.8l11.5-11.8c6.4-6.6,6.4-17,0-23.6
		C54.9,97.9,50.7,96.1,46.4,96.1z M56.9,123.6L56.9,123.6l-10.5,10.8l-10.5-10.8c-5.8-6-5.8-15.4,0-21.4c2.7-2.8,6.6-4.4,10.5-4.4
		s7.8,1.6,10.5,4.4C62.7,108.2,62.7,117.6,56.9,123.6z"/>
	<g>
		<g>
			<path class="st1" d="M63.4,89.3c-0.2,0-0.4-0.2-0.4-0.4v-7c0-0.2,0.2-0.4,0.4-0.4c0.2,0,0.4,0.2,0.4,0.4v7
				C63.8,89.1,63.7,89.3,63.4,89.3z"/>
		</g>
		<g>
			<path class="st1" d="M58.4,89.3c-0.2,0-0.4-0.2-0.4-0.4v-7c0-0.2,0.2-0.4,0.4-0.4s0.4,0.2,0.4,0.4v7
				C58.8,89.1,58.6,89.3,58.4,89.3z"/>
		</g>
		<g>
			<path class="st1" d="M53.3,89.3c-0.2,0-0.4-0.2-0.4-0.4v-7c0-0.2,0.2-0.4,0.4-0.4c0.2,0,0.4,0.2,0.4,0.4v7
				C53.8,89.1,53.6,89.3,53.3,89.3z"/>
		</g>
	</g>
	<g>
		<g>
			<path class="st1" d="M73.8,67.4c-0.2,0-0.4-0.2-0.4-0.4v-7c0-0.2,0.2-0.4,0.4-0.4c0.2,0,0.4,0.2,0.4,0.4v7
				C74.2,67.2,74,67.4,73.8,67.4z"/>
		</g>
		<g>
			<path class="st1" d="M68.5,67.4c-0.2,0-0.4-0.2-0.4-0.4v-7c0-0.2,0.2-0.4,0.4-0.4s0.4,0.2,0.4,0.4v7
				C68.9,67.2,68.7,67.4,68.5,67.4z"/>
		</g>
	</g>
	<g>
		<path class="st0" d="M145.3,137.6c-0.5,0-0.8-0.4-0.8-0.8v-12.6c0-0.5,0.4-0.8,0.8-0.8s0.8,0.4,0.8,0.8v12.6
			C146.1,137.2,145.8,137.6,145.3,137.6z"/>
	</g>
	<g>
		<path class="st0" d="M145.6,125l-0.5,0c-2.8-0.1-5-1.1-6.5-2.9c-2.6-3-3.3-8.3-2.2-15.7c1.7-11,3.8-17.9,8.7-18.4v0l0.5,0
			c5,0.4,7,7.4,8.7,18.4c1.1,7.4,0.4,12.7-2.2,15.7C150.5,123.9,148.3,124.9,145.6,125L145.6,125z M145.3,89.7
			c-3.4,0.2-5.5,5.2-7.3,16.9c-1,6.8-0.4,11.8,1.8,14.4c1.3,1.5,3.1,2.3,5.5,2.3c2.4,0,4.2-0.8,5.5-2.3c2.2-2.6,2.9-7.6,1.8-14.4
			C150.8,94.9,148.7,89.9,145.3,89.7z"/>
	</g>
	<g>
		<path class="st0" d="M149.2,86.3c-0.5,0-0.8-0.4-0.8-0.8V61.1h-22.7c-0.5,0-0.8-0.4-0.8-0.8c0-0.5,0.4-0.8,0.8-0.8h23.5
			c0.5,0,0.8,0.4,0.8,0.8v25.2C150.1,85.9,149.7,86.3,149.2,86.3z"/>
	</g>
	<g>
		<g>
			<path class="st1" d="M144.6,75.8c-0.2,0-0.4-0.2-0.4-0.4v-7c0-0.2,0.2-0.4,0.4-0.4s0.4,0.2,0.4,0.4v7
				C145.1,75.6,144.9,75.8,144.6,75.8z"/>
		</g>
		<g>
			<path class="st1" d="M138.5,75.8c-0.2,0-0.4-0.2-0.4-0.4v-7c0-0.2,0.2-0.4,0.4-0.4c0.2,0,0.4,0.2,0.4,0.4v7
				C138.9,75.6,138.8,75.8,138.5,75.8z"/>
		</g>
		<g>
			<path class="st1" d="M132.4,75.8c-0.2,0-0.4-0.2-0.4-0.4v-7c0-0.2,0.2-0.4,0.4-0.4c0.2,0,0.4,0.2,0.4,0.4v7
				C132.8,75.6,132.6,75.8,132.4,75.8z"/>
		</g>
	</g>
	<g>
		<path class="st0" d="M61.7,138.5H31.5c-0.5,0-0.8-0.4-0.8-0.8s0.4-0.8,0.8-0.8h30.3c0.5,0,0.8,0.4,0.8,0.8S62.2,138.5,61.7,138.5z
			"/>
	</g>
	<g>
		<path class="st0" d="M154.3,138.5h-18.5c-0.5,0-0.8-0.4-0.8-0.8s0.4-0.8,0.8-0.8h18.5c0.5,0,0.8,0.4,0.8,0.8
			S154.7,138.5,154.3,138.5z"/>
	</g>
	<g>
		<path class="st0" d="M130.7,138.5H65.1c-0.5,0-0.8-0.4-0.8-0.8s0.4-0.8,0.8-0.8h65.6c0.5,0,0.8,0.4,0.8,0.8
			S131.2,138.5,130.7,138.5z"/>
	</g>
</g>
<text transform="matrix(1 0 0 1 52.5416 170.3877)" class="st0 st2 st3">智慧城市</text>
<g>
	<path class="st1" d="M182,2v180H2V2H182 M184,0H0v184h184V0L184,0z"/>
</g>
</svg>
