<?xml version="1.0" encoding="utf-8"?>
<!-- Generator: Adobe Illustrator 21.0.0, SVG Export Plug-In . SVG Version: 6.00 Build 0)  -->
<svg version="1.1" id="图层_1" xmlns="http://www.w3.org/2000/svg" xmlns:xlink="http://www.w3.org/1999/xlink" x="0px" y="0px"
	 viewBox="0 0 184 184" style="enable-background:new 0 0 184 184;" xml:space="preserve">
<style type="text/css">
	.st0{fill:#0F3264;}
	.st1{font-family:'PingFang-SC-Regular';}
	.st2{font-size:20px;}
	.st3{fill:#DCDCDC;}
	.st4{fill:#3CA5C3;}
</style>
<text transform="matrix(1 0 0 1 72.5416 170.3877)" class="st0 st1 st2">物流</text>
<g>
	<path class="st3" d="M183,1v182H1V1H183 M184,0H0v184h184V0L184,0z"/>
</g>
<g>
	<g>
		<path class="st4" d="M153.8,105.8h-5.1c-0.2,0-0.4-0.2-0.4-0.4V95.3c0-0.2,0.2-0.4,0.4-0.4h5.1c0.2,0,0.4,0.2,0.4,0.4
			c0,0.2-0.2,0.4-0.4,0.4h-4.6v9.3h4.6c0.2,0,0.4,0.2,0.4,0.4C154.2,105.7,154,105.8,153.8,105.8z"/>
	</g>
	<g>
		<path class="st4" d="M113.2,97.4H42.3c-0.2,0-0.4-0.2-0.4-0.4c0-0.2,0.2-0.4,0.4-0.4h70.9c0.2,0,0.4,0.2,0.4,0.4
			C113.7,97.2,113.5,97.4,113.2,97.4z"/>
	</g>
	<g>
		<path class="st0" d="M44,138.4H33.8c-0.5,0-0.8-0.4-0.8-0.8c0-0.5,0.4-0.8,0.8-0.8H44c0.5,0,0.8,0.4,0.8,0.8
			C44.8,138,44.4,138.4,44,138.4z"/>
	</g>
	<g>
		<path class="st0" d="M81.1,138.4H49c-0.5,0-0.8-0.4-0.8-0.8c0-0.5,0.4-0.8,0.8-0.8h32.1c0.5,0,0.8,0.4,0.8,0.8
			C82,138,81.6,138.4,81.1,138.4z"/>
	</g>
	<g>
		<path class="st0" d="M157.2,138.4h-47.3c-0.5,0-0.8-0.4-0.8-0.8c0-0.5,0.4-0.8,0.8-0.8h47.3c0.5,0,0.8,0.4,0.8,0.8
			C158,138,157.6,138.4,157.2,138.4z"/>
	</g>
	<g>
		<path class="st0" d="M104.8,138.4H86.2c-0.5,0-0.8-0.4-0.8-0.8c0-0.5,0.4-0.8,0.8-0.8h18.6c0.5,0,0.8,0.4,0.8,0.8
			C105.6,138,105.3,138.4,104.8,138.4z"/>
	</g>
	<g>
		<path class="st0" d="M65.1,133.3c-8.4,0-15.2-6.8-15.2-15.2s6.8-15.2,15.2-15.2s15.2,6.8,15.2,15.2S73.5,133.3,65.1,133.3z
			 M65.1,104.6c-7.5,0-13.5,6.1-13.5,13.5c0,7.5,6.1,13.5,13.5,13.5c7.5,0,13.5-6.1,13.5-13.5C78.6,110.6,72.5,104.6,65.1,104.6z"/>
	</g>
	<g>
		<path class="st4" d="M65.1,125.3c-4,0-7.2-3.2-7.2-7.2s3.2-7.2,7.2-7.2c4,0,7.2,3.2,7.2,7.2S69.1,125.3,65.1,125.3z M65.1,111.8
			c-3.5,0-6.3,2.8-6.3,6.3s2.8,6.3,6.3,6.3c3.5,0,6.3-2.8,6.3-6.3S68.6,111.8,65.1,111.8z"/>
	</g>
	<g>
		<path class="st0" d="M132.7,133.3c-8.4,0-15.2-6.8-15.2-15.2s6.8-15.2,15.2-15.2s15.2,6.8,15.2,15.2S141,133.3,132.7,133.3z
			 M132.7,104.6c-7.5,0-13.5,6.1-13.5,13.5c0,7.5,6.1,13.5,13.5,13.5c7.5,0,13.5-6.1,13.5-13.5C146.2,110.6,140.1,104.6,132.7,104.6
			z"/>
	</g>
	<g>
		<path class="st4" d="M132.7,125.3c-4,0-7.2-3.2-7.2-7.2s3.2-7.2,7.2-7.2s7.2,3.2,7.2,7.2S136.6,125.3,132.7,125.3z M132.7,111.8
			c-3.5,0-6.3,2.8-6.3,6.3s2.8,6.3,6.3,6.3c3.5,0,6.3-2.8,6.3-6.3S136.2,111.8,132.7,111.8z"/>
	</g>
	<g>
		<path class="st0" d="M143.6,79.2H120c-0.5,0-0.8-0.4-0.8-0.8c0-0.5,0.4-0.8,0.8-0.8h23.6c0.5,0,0.8,0.4,0.8,0.8
			C144.5,78.9,144.1,79.2,143.6,79.2z"/>
	</g>
	<g>
		<path class="st4" d="M135.2,77.1c-0.1,0-0.1,0-0.2,0c-0.2-0.1-0.3-0.4-0.2-0.6l3.4-6.8c0.1-0.2,0.4-0.3,0.6-0.2
			c0.2,0.1,0.3,0.4,0.2,0.6l-3.4,6.8C135.5,77,135.4,77.1,135.2,77.1z"/>
	</g>
	<g>
		<path class="st0" d="M113.2,118.1H84.5c-0.5,0-0.8-0.4-0.8-0.8s0.4-0.8,0.8-0.8h27.9V35.3H38.9c-2.3,0-4.2,1.9-4.2,4.2v72.6
			c0,2.3,1.9,4.2,4.2,4.2h6.8c0.5,0,0.8,0.4,0.8,0.8s-0.4,0.8-0.8,0.8h-6.8c-3.3,0-5.9-2.7-5.9-5.9V39.5c0-3.3,2.7-5.9,5.9-5.9h74.3
			c0.5,0,0.8,0.4,0.8,0.8v82.8C114.1,117.7,113.7,118.1,113.2,118.1z"/>
	</g>
	<g>
		<path class="st0" d="M154.6,118.9H147c-0.5,0-0.8-0.4-0.8-0.8s0.4-0.8,0.8-0.8h6.8V88l-8.2-8.2c-0.2-0.2-0.2-0.4-0.2-0.6V50.5
			c0-2.3-1.9-4.2-4.2-4.2h-22c-0.5,0-0.8-0.4-0.8-0.8c0-0.5,0.4-0.8,0.8-0.8h22c3.3,0,5.9,2.7,5.9,5.9v28.4l8.2,8.2
			c0.2,0.2,0.2,0.4,0.2,0.6v30.4C155.5,118.6,155.1,118.9,154.6,118.9z"/>
	</g>
</g>
</svg>
